<svg xmlns="http://www.w3.org/2000/svg" width="85" height="70" fill="none"><path fill="#fff" d="m82.668 66.222.532-.066v.037l-.175.153q-.474.406-.882.878a6.5 6.5 0 0 0-.962 1.368 2.75 2.75 0 0 0-.466 1.361c.065.168.291-.11.998-.936q.67-.744 1.458-1.361c.24-.176.444-.322.605-.417l.386-.249.838-.556-.809-.965-.466-.52-.438-.46a13.4 13.4 0 0 0-1.603-1.398.3.3 0 0 0-.11 0c-.852.051-.728.666-.655.944 0 .05 0 .05.043.073q.779.583 1.458 1.28l.146.146c-1.305-.183-3.076-.3-3.076-.3H67.421v-.036c0-.359.066-.732.095-1.032l.087-1.104V28.378c.217.182.464.326.73.424.41.148.854.166 1.275.051a4.7 4.7 0 0 0 1.858-1.09q.728-.66 1.341-1.426a30 30 0 0 0 2.15-3.073 67 67 0 0 0 4.89-9.32q.572-1.33 1.043-2.648l.32.35c.576.644 1.159 1.332 1.13 1.266.955 1.017 1.705 1.537.561-.38a23 23 0 0 0-.904-1.514c-.306-.469-.502-.732-.67-.959.065-.19.131-.388.182-.563l.197-.695.095-.344c0-.102.13-.3-.051-.19l-1.349.497-.204.088-.102-.088-.219-.19-.502-.424-.066-.051-.066.05-.13.096-.27.197-.263.198-.167.132a23 23 0 0 0-2.092 1.924l-1.006 1.024-.51.49-.27.241c-.182-.19 1.4 1.844.73.966h.043c.066.066.117.14 0 0l.051-.037.16-.102 2.493-1.756c.422-.285.853-.57 1.29-.826l.335-.19.262-.14-.182.513-.291.775a60 60 0 0 1-2.843 6.277 60 60 0 0 1-1.749 3.146c-.626 1.046-1.26 2.107-1.96 3.109a15.2 15.2 0 0 1-2.354 2.773 3.05 3.05 0 0 1-1.37.731 1.17 1.17 0 0 1-1.1-.541 5.4 5.4 0 0 1-.497-.864V6.84a1 1 0 0 0-.05-.095c0-.044 0-.08-.124-.124a.58.58 0 0 0-.678-.176l-.525-.088c-1.297-.226-3.156-.439-3.156-.439l-1.13-.05c-2.295-.089-4.59-.191-6.916-.162-.342 0-.692 0-1.042.037a8 8 0 0 0-.962.11h-.145a.5.5 0 0 0-.117.08 1.7 1.7 0 0 0-.219.307.26.26 0 0 0 0 .271c.046.08.11.149.19.198 0 .131-.044.285-.066.453-.175 1.317-.291 3.19-.291 3.19l.094 21.815a32 32 0 0 1-1.166-1.397 20 20 0 0 1-1.064-1.705c-.19-.3-.379-.614-.612-.914a4.2 4.2 0 0 0-.824-.87 2.5 2.5 0 0 0-.379-.257v-7.703a1 1 0 0 0-.05-.095c0-.044 0-.088-.124-.132a.59.59 0 0 0-.678-.168l-.525-.088c-1.297-.227-3.156-.439-3.156-.439l-1.13-.051c-2.295-.088-4.59-.19-6.916-.161-.342 0-.728 0-1.042.037a8 8 0 0 0-.962.11h-.116a.5.5 0 0 0-.117.08 1.7 1.7 0 0 0-.219.307.26.26 0 0 0 0 .27q.07.124.19.198c0 .132-.044.285-.058.454-.183 1.317-.3 3.19-.3 3.19l.103 17.93c-.343-.124-.678-.27-1.006-.424a16.5 16.5 0 0 1-2.675-1.639v-7.93a.24.24 0 0 0-.05-.095c0-.044 0-.088-.125-.132a.575.575 0 0 0-.677-.168l-.525-.088c-1.297-.234-3.149-.439-3.149-.439l-1.136-.051c-2.296-.088-4.592-.19-6.917-.16h-1.042a8 8 0 0 0-.955.109c-.036-.037-.073 0-.109 0h-.044a.5.5 0 0 0-.11.08q-.129.135-.218.3a.24.24 0 0 0 0 .278.54.54 0 0 0 .182.198v.066a.73.73 0 0 0-.142.698.1.1 0 0 0 .026.033c-.146 1.273-.24 2.824-.24 2.824l.087 11.852c-.962 1.748-1.859 3.467-2.82 5.062q-.836 1.471-1.823 2.846l-.488.629-.058.073-.066.08q-.575.698-1.239 1.31a.3.3 0 0 0 0 .095c-.11.82.445.922.78.849a.1.1 0 0 0 .08-.037q.718-.653 1.334-1.404l.073-.08v-.045l.043-.05c.095-.103.175-.22.263-.33a29 29 0 0 0 1.91-2.795c.728-1.156 1.37-2.363 2.033-3.584l.109 14.682v1.858H4.468V5.787s-.205-3.453-.234-3.307a9 9 0 0 0-.153-1.01q.45.278.846.63c.597.519 1.122 1.148 1.093 1.082.918 1.003 1.676 1.595.568-.38a9 9 0 0 0-1.275-1.763 5 5 0 0 0-.343-.33L4.817.572l-.073-.06-.123-.088-.518-.35L3.987 0l-.051.044-.22.175-.415.366-.43.41q-.293.283-.575.578c-.481.512-.926 1.046-1.363 1.565a.4.4 0 0 0 0 .11c0 .834.583.82.889.732.051 0 .058 0 .073-.037.437-.527.867-1.031 1.312-1.514l.459-.468-.073.534c-.182 1.31-.306 3.19-.306 3.19v9.51a.7.7 0 0 0-.175-.132 3 3 0 0 0-.67-.315H0v1.193h2.332q.373-.089.729-.234a1 1 0 0 0 .182-.125v13.169q-.22-.12-.459-.198h-1.1a5 5 0 0 1-.65-.058v.058c0 .059-.057.132-.072.183a.4.4 0 0 1-.066.117l-.094-.168a.8.8 0 0 0-.336-.307H.423l-.066.058-.073.073a1 1 0 0 0-.116.205.7.7 0 0 0 0 .527 1 1 0 0 0 .072.124l.059.074.138.117q.087.053.182.087l.132.044q.45.099.91.103h1.152s.277-.088.467-.161v14.514l-.117-.095a2.1 2.1 0 0 0-.525-.285l-.925.051-.642.044H.722l-.124.036H.525l-.044.037a.64.64 0 0 0-.255.432.594.594 0 0 0 .408.636H.73a.26.26 0 0 0 .095-.19v-.168.044c0 .095.05.292.058.35h.197l.62-.043.896-.051q.266-.108.51-.264a.4.4 0 0 0 .094-.088v12.013a4 4 0 0 0-.277-.132l-2.347-.13a.1.1 0 0 0 0 .05c-.037.132-.095.235 0 .396-.059.102-.124.19-.175.285s-.095.066 0 .146.065.096.08.14c.015.043 0 .138.036.182l2.347.132.365-.095v7.894a.1.1 0 0 0 0 .036.63.63 0 0 0 .277.863.1.1 0 0 0 .08 0H79.38s3.425-.117 3.287-.146M28.146 30.968h.219v2.83c-.24-.35-.503-.658-.503-.658s-.787-.65-1.53-1.36c-.248-.242-.496-.483-.73-.732 1.028-.015 2.639-.051 2.544-.08m-4.27.058h.094s.19.234.467.534.641.688 1.027 1.054c.73.731 1.575 1.39 1.575 1.39l.546.314q.255.162.54.264l.233.073v3.102c-.292-.242-.583-.483-.868-.732l-.597-.541.058.044c.354.307.755.554 1.188.731.16 0 0-.344-.729-1.2a19 19 0 0 0-1.457-1.536l-.802-.732-.875-.731c-.437-.373-.874-.732-1.304-1.127s-.67-.629-.999-.958zm4.256 21.947a32 32 0 0 0-2.114-2.421l-.852-.732c-2.53-2.253-5.102-4.39-7.47-6.789l.684-1.236c.73.731 1.458 1.463 2.136 2.231a48 48 0 0 0 3.884 3.84l.729.637 1.363 1.01c.678.497 1.319 1.002 1.275.951l.576.402v2.385zm.233 1.017v2.458l-.46-.49c-.867-.973-2.069-2.392-2.069-2.392l-.794-.812c-.62-.622-1.247-1.258-1.917-1.858s-1.356-1.156-2.033-1.727a49 49 0 0 1-3.878-3.482 16 16 0 0 1-.67-.732c.065-.095.116-.19.182-.292.066-.103.226-.38.335-.571 2.347 2.334 4.869 4.44 7.288 6.584l.729.651 1.312 1.068c.648.527 1.26 1.068 1.224 1.01l.75.578zm-.095-4.038q-.69-.814-1.457-1.551l-.787-.776-.86-.731c-2.187-1.873-4.075-4.126-6.174-6.233.154-.256.307-.52.467-.776l.16-.256c1.516 1.295 3.025 2.576 4.49 3.9l.728.65s.664.542 1.305 1.084c.641.54 1.246 1.09 1.203 1.024q.463.42 1.005.731v3.029zm-.393-4.112a30 30 0 0 0-2.078-2.458l-.874-.804c-1.516-1.361-3.061-2.67-4.599-3.988l.168-.226q.26-.331.532-.63a166 166 0 0 0 2.915 2.576l.729.614s.729.49 1.355.995c.627.505 1.261 1.032 1.225.973q.488.451 1.05.805v2.824c-.052-.183-.205-.41-.423-.71zm-.044-3.365q-.646-.851-1.407-1.602c-.459-.46-.801-.775-.801-.775l-.882-.732q-1.392-1.185-2.755-2.429l.087-.051a4 4 0 0 1 .372-.212q.241-.14.503-.234l1.013.929.729.644s.729.534 1.384 1.024q.647.486 1.342.9.455.271.94.49v2.86a6.6 6.6 0 0 0-.518-.841zm.036-3.043-2.215-2.275-.831-.732c.987.688 1.92 1.451 2.791 2.283l.787.614v.541c-.167-.11-.328-.27-.56-.46zm-7.193-8.494a.9.9 0 0 0 0 .373.14.14 0 0 0 0 .088c.481.512.984.995 1.494 1.463s.896.776 1.348 1.149l.73.622.968.731c-.474-.237-1-.353-1.53-.336q-.243.015-.481.073l-3.462-3.219-1.064-.966a20 20 0 0 1 1.997-.007zm-3.644-.044h.386a.9.9 0 0 0 0 .44.1.1 0 0 0 0 .073c.51.446 1.006.9 1.502 1.36l2.995 2.787-.299.154a4.3 4.3 0 0 0-.605.395 137 137 0 0 1-4.19-4.03l-1.108-1.12c.466-.066.904-.08 1.32-.088zm-1.457 3.6s-.08-1.185-.154-2.136l.584.592a164 164 0 0 0 4.146 3.987l-.116.125a23 23 0 0 0-.613.731c-.728-.622-1.457-1.236-2.128-1.873a38 38 0 0 1-1.457-1.368.3.3 0 0 0-.102 0h-.131zm0 1.543c.298.278.59.556.896.827a59 59 0 0 0 2.237 1.96c-.211.315-.408.637-.605.959-.182-.176-.357-.351-.546-.52-.51-.46-1.035-.914-1.589-1.346h-.11a1.5 1.5 0 0 0-.269 0zm0 3.168q.588.47 1.144.973l.729.688c-.205.358-.401.731-.59 1.06l-.088.154a29 29 0 0 1-.89-.973l-.094-.036h-.197zm0 3.431.532.57c-.059.103-.117.213-.183.315s-.218.373-.335.564zm0 3.863c.058-.095.109-.198.167-.3l.073-.124c.146.16.284.321.437.475a52 52 0 0 0 3.972 3.57c.67.563 1.363 1.12 1.997 1.69s1.246 1.192 1.866 1.814l.685.695s.641.578 1.297 1.134q.61.537 1.283.995.436.313.925.534v2.07l-.328-.365a69 69 0 0 0-2.186-2.327l-.853-.731c-2.572-2.29-5.101-4.616-7.74-6.892l-1.552-1.331zm0 2.487.772.666c2.595 2.26 5.153 4.58 7.733 6.877l.728.65 1.349 1.047c.67.512 1.333 1.01 1.29.951.298.205.575.38.801.505v2.926l-.146-.139c-.947-.9-2.186-2.246-2.186-2.246-.277-.249-.54-.512-.809-.768-2.55-2.473-4.875-5.253-7.681-7.623-.54-.439-1.079-.878-1.647-1.273a.2.2 0 0 0-.11 0h-.073zm.123 16.263v-.863l1.028.863zm2.427 0a3.7 3.7 0 0 0-.4-.731l-1.094-.922-.729-.637-.204-.19v-.82q.306.331.634.63l.328.285q.384.331.788.63s.728.49 1.457.914 1.458.848 1.385.797l.124.066zm3.17 0a7 7 0 0 0-.604-.6c-.488-.46-1.108-.965-1.59-1.368l-.823-.731c-.298-.22-.583-.447-.86-.673l-.291-.264a5.7 5.7 0 0 1-1.174-1.39.15.15 0 0 0-.072-.044l-.226-.066v-1.675l.677.607c1.137 1.047 2.238 2.144 3.36 3.234l.729.68s.663.556 1.326 1.09q.623.52 1.305.959l.335.212zm2.836 0a17 17 0 0 0-.65-.731l-2.134-2.334-.817-.783c-1.115-1.083-2.222-2.195-3.381-3.256a45 45 0 0 0-1.516-1.331v-1.368l.11.095.086.095.11.103.372.35 3.389 3.176 1.698 1.595 1.749 1.558.729.644 1.34 1.046c.664.52 1.312 1.031 1.261.973l.168.117zm3.308 0-.473-.593c-.846-1.031-2.187-2.363-2.187-2.363l-.852-.731-1.72-1.544-1.575-1.646-3.396-3.19-.372-.35-.072-.066-.059-.066a1.7 1.7 0 0 0-.284-.234 3 3 0 0 0-.568-.293l-.132-.051v-2.195c.35.27.73.541 1.028.82 2.697 2.267 5.014 5.025 7.623 7.557l.729.68.423.337c.255.204.59.475.94.731q.645.503 1.348.915.33.188.605.322c0 .329.051.819.08 1.309 0 .212 0 .424.044.622zm1.852 0c0-.358.065-.731.101-1.031.044-.637.08-1.105.08-1.105V40.222q.641.451 1.327.827c.752.423 1.542.77 2.361 1.038l.124 21.275v1.858zM42.657 19.6c.087.058.226.154.408.293s.649.519 1.006.84a20 20 0 0 1 1.377 1.347q.46.355.955.658c.437.25.845.286.503-.453q-.225-.537-.54-1.024s-.692-.732-1.457-1.427l-.24-.212c1.005 0 2.397-.059 2.31-.08h.21v7.074a7 7 0 0 0-.538-.849 28 28 0 0 0-2.048-2.51l-.831-.782-2.085-2.02c-.335-.314-.655-.636-.976-.95zm3.848 29.746-2.077-2.4-.787-.805c-1.24-1.28-2.464-2.64-3.695-3.958l-.627-.672a9 9 0 0 0 1.18-.9l2.42 2.472.678.695 1.268 1.142c.62.563 1.224 1.126 1.18 1.068.328.338.716.611 1.145.804v3.395a9 9 0 0 0-.685-.863zm.685 1.148v3.336a10 10 0 0 0-.401-.563c-.773-1.075-2.033-2.48-2.033-2.48l-.817-.79-2.004-1.91a34 34 0 0 1-1.887-1.96c-1.086-1.2-2.143-2.451-3.236-3.658a6.7 6.7 0 0 0 1.363-.359l.881.944c1.24 1.324 2.435 2.656 3.71 3.973l.685.731s.649.578 1.305 1.127q.607.534 1.268 1.002c.357.252.75.45 1.166.585zm-.62-4.945c-.758-1.076-1.967-2.539-1.967-2.539l-.795-.812-2.434-2.495c.16-.182.313-.373.46-.563.342.344.728.68 1.056 1.01l.729.658 1.333 1.046c.649.527 1.247 1.068 1.21 1.01q.485.454 1.05.805v2.838a6.6 6.6 0 0 0-.642-.98zm.088-3.102q-.616-.856-1.327-1.631l-.728-.798-.846-.732q-.59-.537-1.159-1.119.155-.21.285-.439l.51-.921.459.387s.685.512 1.32 1.04c.633.526 1.216 1.09 1.172 1.03.38.337.73.637.904.776v3.3a5.4 5.4 0 0 0-.59-.915zm.167-3.658a14 14 0 0 0-1.333-1.668 20 20 0 0 0-.78-.805l-.86-.731c.095-.256.19-.52.284-.768l.306-.834c.678.497 2.507 1.85 2.434 1.755l.314.212v3.402a9 9 0 0 0-.365-.592zm-1.712-5.852-.226-.19.379-.966q.637.499 1.348.885.279.164.576.292v2.093a55 55 0 0 0-2.077-2.114m1.924-.798a40 40 0 0 1-1.37-1.353c.204-.483.422-.951.663-1.405.25.212.544.367.86.454v2.436zm-.408-3.3q.143-.245.32-.468.107-.143.24-.263v1.5a5.6 5.6 0 0 0-.56-.768m-7.325-9.385a.9.9 0 0 0 0 .373.1.1 0 0 0 .037.08l1.457 1.463 2.143 1.997.729.666s.656.549 1.282 1.098c.627.548 1.225 1.112 1.188 1.046q.408.37.853.695a1.5 1.5 0 0 0-.313.117 2.3 2.3 0 0 0-.54.468 7 7 0 0 0-.298.388l-1.312-1.661-.73-.849a46 46 0 0 0-5.1-5.084 13 13 0 0 0-.839-.659c-.073-.043-.131-.095-.204-.146zm-5.16.256v-.176a14 14 0 0 1 1.742-.117h.32a.9.9 0 0 0 0 .366c0 .051 0 .066.052.087q.402.413.882.732c.262.183.495.38.728.6a44 44 0 0 1 4.978 4.953l.649.731s.612.615 1.232 1.2l.604.549c-.145.256-.27.512-.4.768l-.197.446-.729-.731-3.957-4.01c-1.334-1.338-2.653-2.67-4.125-3.92a13 13 0 0 1-1.458-1.296l-.088-.036h-.255a.7.7 0 0 0 .022-.146m.248 3.306s-.05-.804-.11-1.624q.451.404.89.732c1.385 1.178 2.718 2.524 4.038 3.84l3.971 4.01.73.731.364.307c-.124.3-.24.608-.358.915-2.594-2.129-4.773-4.69-7.36-6.98-.518-.453-1.057-.9-1.611-1.316a.4.4 0 0 0-.11 0 1.1 1.1 0 0 0-.422.095zm0 1.756c.452.344.896.732 1.326 1.09 1.305 1.149 2.53 2.407 3.783 3.658a51 51 0 0 0 3.928 3.607l-.065.175-.503 1.383a84 84 0 0 1-2.857-2.736c-.62-.63-1.261-1.236-1.844-1.88a31 31 0 0 0-1.895-1.917 12 12 0 0 0-1.669-1.331.2.2 0 0 0-.11 0h-.08zm0 3.446c.35.263.729.541 1.028.848.627.578 1.224 1.215 1.829 1.859s1.253 1.28 1.873 1.909a81 81 0 0 0 3.243 3.073l-.116.22-.489.877c-.043.066-.087.124-.124.19-1.793-1.902-3.476-3.958-5.378-5.852a40 40 0 0 0-1.516-1.42.4.4 0 0 0-.11 0 1 1 0 0 0-.218 0zm0 3.109q.49.45.97.922c1.909 1.887 3.643 4.002 5.524 5.999q-.217.295-.445.57l-4.41-4.587-.342-.35a8 8 0 0 0-.59-.564 5 5 0 0 1-.452-.468.2.2 0 0 0-.073 0h-.109zm0 3.08q.165.146.313.307l.044.044.343.351 4.475 4.587c-.117.103-.226.22-.35.315a5.3 5.3 0 0 1-.824.556l-.364-.395-.46-.498-.502-.505-1.006-.921a9.7 9.7 0 0 1-1.304-1.398l-.088-.036a1.2 1.2 0 0 0-.262 0zm0 3.943c.27.285.547.549.816.805l.992.914q.24.222.459.454l.459.497.05.052a5 5 0 0 1-1.37.197h-.109l-.072-.08-.132-.154-.16-.197c-.11-.14-.219-.279-.357-.425a.4.4 0 0 0-.117-.051 2 2 0 0 0-.19-.037h-.24zm0 4.038.386.059h.336l.277.3c1.217 1.36 2.397 2.78 3.644 4.162a39 39 0 0 0 1.953 2.02l1.997 1.902.729.673 1.282 1.12c.627.548 1.24 1.096 1.203 1.038q.43.377.91.688v3.204l-.058-.066a60 60 0 0 1-1.224-1.653l-.634-.893-.729-.878c-2.74-3.328-6.13-5.742-8.622-9.086q-.647-.763-1.413-1.404zm0 2.927c.16.168.32.336.474.52.729.848 1.457 1.82 2.31 2.67.853.848 1.67 1.66 2.507 2.457l1.254 1.208.62.614c.203.198.407.395.597.6.386.417.765.841 1.13 1.287l.816.98s.583.637 1.195 1.245q.564.594 1.21 1.097c.197.154.386.285.554.395v2.034c-.81-1.04-2.005-2.37-2.005-2.37l-.794-.798c-1.355-1.383-2.704-2.853-4.06-4.287l-2.025-2.158-.51-.534-.54-.542-1.057-1.024q-.7-.691-1.311-1.463s-.08 0-.095-.044a2 2 0 0 0-.263-.036zm.117 19.92v-.54c.204.204.408.394.575.54zm2.099 0a3.5 3.5 0 0 0-.314-.563s-.517-.431-.962-.878a4 4 0 0 1-.51-.622 1 1 0 0 1-.131-.27h-.197v-.922c.219.27.452.549.729.812.444.476.91.915 1.26 1.236l.591.534.97.651zm2.317 0a2 2 0 0 0-.175-.336 10.4 10.4 0 0 0-.838-1.178l-.583-.534c-.35-.315-.801-.731-1.224-1.2A11 11 0 0 1 35.04 60.7a6 6 0 0 1-.394-.651h-.175v-1.28c.3.343.598.687.904 1.023.51.571 1.035 1.127 1.567 1.683l.685.732s.649.578 1.29 1.126c.641.549 1.29 1.076 1.246 1.017 1.115.834 1.946 1.23.496-.468-.831-1.024-2.055-2.429-2.055-2.429l-.787-.804a65 65 0 0 1-1.538-1.654c-.503-.556-.89-1.01-1.327-1.522h-.095a1 1 0 0 0-.393 0v-1.821l.729.79a175 175 0 0 0 2.747 2.992l1.414 1.463c.481.483.926.944 1.378 1.463l.648.732s.612.607 1.232 1.192c.62.586 1.035.93 1.18 1.04zm5.743 0-.364-.431-1.939-2.51-.729-.84a25 25 0 0 0-1.414-1.464c-.473-.446-.932-.958-1.392-1.463-.925-.973-1.829-1.975-2.733-2.97l-1.268-1.573a.2.2 0 0 0-.102-.037h-.153v-1.792l.955 1.017c2.529 2.648 5.102 5.201 7.572 7.871l.649.732s.612.6 1.195 1.207 1.115 1.244 1.115 1.141c.97.973 1.742 1.522.554-.395a30 30 0 0 0-1.844-2.64l-.729-.85c-2.47-2.713-5.101-5.267-7.58-7.893l-1.391-1.463-.102-.037a1.5 1.5 0 0 0-.357 0v-2.1c.262.286.532.564.801.835l1.065 1.039.51.504.502.534 2.027 2.159a252 252 0 0 0 4.08 4.309l.693.694 1.297 1.113c.65.548 1.276 1.082 1.232 1.024l.445.336v1.617s.058.863.109 1.705c0 .22 0 .431.044.621zm3.425 0c0-.358.066-.731.095-1.031l.088-1.105V28.714l.11.117a14 14 0 0 1 1.063 1.654c.175.3.35.6.576.922l.175.234.16.197.328.402a20 20 0 0 0 1.414 1.573l.226.22.131 29.402V65.3zm17.95-58.182h.212v2.824a1.5 1.5 0 0 0-.124-.227 8 8 0 0 0-.692-1.016s-.802-.732-1.683-1.398l-.124-.088c1.144-.043 2.638-.08 2.543-.11zm-4.75.044V7.2s.057 0 .152.058.226.103.386.19q.604.342 1.152.769a29 29 0 0 1 1.603 1.316s1.1.688 1.079.63a.77.77 0 0 0 .576.11v2.743a6.3 6.3 0 0 0-.787-.798 84 84 0 0 0-2.347-2.158l-.911-.688a38 38 0 0 0-3.192-2.194l-.394-.227zM54.93 6.95h1.538q.03.18.123.336c0 .044.037.052.059.059q.896.42 1.742.936 1.6.98 3.097 2.115l.772.585 1.414.944c.73.468 1.414.907 1.363.856.379.24.788.427 1.217.556v2.926l-.306-.285c-.955-.908-2.368-2.122-2.368-2.122l-.904-.688-3.586-2.721c-1.217-.944-2.558-1.683-3.746-2.517-.27-.19-.54-.38-.787-.585l-.357-.293-.058-.05zm-1.662.892.102.096.423.358c.284.22.568.424.852.63 1.269.877 2.566 1.594 3.717 2.487l3.732 2.7.78.592 1.457.936c.729.454 1.458.885 1.37.834.27.146.518.278.73.373v2.605c-.956-.915-2.37-1.976-2.37-1.976l-.947-.622a73 73 0 0 1-1.917-1.287 36 36 0 0 1-1.822-1.368c-1.21-.951-2.426-1.946-3.76-2.81-.292-.182-.612-.387-.919-.548a6 6 0 0 0-.99-.498.2.2 0 0 0-.095 0c-.073-.482-.153-1.719-.212-2.516zm.19 3.834.488.263c.299.161.54.322.83.505 1.261.812 2.45 1.778 3.645 2.743.605.476 1.231.973 1.887 1.412.656.44 1.29.871 1.939 1.295l.816.534 1.458.856c.728.417 1.42.849 1.37.798l.335.19v2.656a8 8 0 0 0-.35-.337c-.954-.93-2.434-2.078-2.434-2.078l-.933-.644a82 82 0 0 1-1.822-1.294c-.597-.44-1.173-.9-1.8-1.354-1.239-.885-2.492-1.704-3.644-2.582a23 23 0 0 1-1.545-1.237.3.3 0 0 0-.095 0h-.13zm12.768 27.302c-.889-.987-2.288-2.246-2.288-2.246l-.897-.695c-.634-.497-1.268-.965-1.858-1.463a68 68 0 0 1-1.779-1.565l-.801-.732.153-.307.11-.242.057-.117v-.161l.102-.285c.882.666 1.772 1.331 2.639 2.012l.765.6 1.385.973c.678.49 1.333.98 1.29.922.338.26.705.48 1.093.658v2.663zm0 .82v2.575l-.233-.227-2.267-2.195-.86-.731c-1.188-1.04-2.42-2.107-3.695-3.08l-2.099-1.595c.338-.34.637-.719.89-1.127l.604.527c.59.534 1.188 1.068 1.808 1.587.62.52 1.268 1.01 1.895 1.464l.729.592 1.392.973c.728.476 1.355.959 1.311.9.372.125.532.227.685.322zm-.62-4.587c-.874-1.01-2.266-2.283-2.266-2.283l-.896-.731a177 177 0 0 0-2.974-2.261c.139-.402.292-.797.437-1.192.583.468 1.174.929 1.786 1.39l.816.563 1.458.856c.729.417 1.392.863 1.348.812.365.227.678.417.904.534v3.029a9 9 0 0 0-.481-.732zm.161-3.329q-.75-.75-1.581-1.405l-.868-.687-.925-.63a96 96 0 0 1-2.034-1.594q.295-.749.634-1.463l1.108.885.773.607s.728.49 1.457.951q.661.456 1.37.834c.197.11.387.205.554.285v2.715a6 6 0 0 0-.328-.513zm.328-3.036a178 178 0 0 0-2.354-2.129l-.89-.695-1.282-1.031q.215-.378.466-.732.13-.195.285-.373l.357.256s2.915 1.822 2.828 1.72l.546.285.058.146.117.27v2.415zm-2.544-5.743q.306-.102.627-.132a.9.9 0 0 1 .292 0 .2.2 0 0 1 .138.08q.246.297.394.652c.138.285.284.593.459.893q.051.106.117.204a59 59 0 0 0-1.873-1.594zm2.835.637-.167-.322.197.095v.292zm-12.754-8.933c.343.278.686.549 1.043.812 1.224.907 2.485 1.727 3.687 2.59.59.424 1.181.9 1.793 1.346s1.232.885 1.851 1.31l.802.556.729.424c-.146 0-.277.073-.416.11q-.16.046-.313.117l-.291.153-.08.066c-.496-.344-.992-.688-1.458-1.053-.59-.454-1.166-.93-1.75-1.412a42 42 0 0 0-3.643-2.81 18 18 0 0 0-1.83-1.053h-.087zm0 2.51q.635.338 1.247.73a41 41 0 0 1 3.542 2.73c.583.482 1.173.965 1.785 1.463.423.336.86.644 1.297.944-.196.248-.371.504-.546.731l-.168.293-1.508-1.237-1.888-1.536-.962-.731-.496-.374a6 6 0 0 0-.539-.365 10 10 0 0 1-1.567-1.061.2.2 0 0 0-.087 0h-.102zm0 2.977c.387.256.766.468 1.108.688.168.11.292.182.46.314l.473.359.947.731 1.874 1.522 1.69 1.39q-.122.232-.233.475a28 28 0 0 0-.423.973l-.408-.314-3.469-2.751a18 18 0 0 1-1.574-1.156h-.087a2 2 0 0 0-.321 0zm0 5.12v-1.601c.445.344.89.6 1.283.878l3.433 2.728q.348.266.685.542c-.153.41-.299.812-.437 1.222a231 231 0 0 1-3.273-2.488l-1.567-1.244a.3.3 0 0 0-.102 0zm0 1.515.926.732c1.195.936 2.398 1.836 3.6 2.736l-.08.234-.16.46-.175.367a21 21 0 0 0-2.034-1.515 12 12 0 0 0-1.88-1.017.5.5 0 0 0-.11 0h-.08zm0 3.285q.73.33 1.4.768a22 22 0 0 1 2.099 1.588 8 8 0 0 1-.409.629 3.5 3.5 0 0 1-.517.563l-.729-.549-1.588-1.243a.3.3 0 0 0-.102 0h-.154zm0 3.117.802.629a2.6 2.6 0 0 1-.444-.271 7 7 0 0 1-.358-.278zm0 1.587.321.19c.384.198.808.305 1.24.315.312.005.622-.055.91-.176l2.42 1.844c1.253.958 2.434 1.982 3.644 3.036l.728.636s.693.52 1.385 1.017q.653.48 1.356.885c.24.147.474.264.67.359v2.758l-.087-.095c-.89-.988-2.303-2.195-2.303-2.195l-.904-.731c-1.268-.974-2.5-1.947-3.688-3a65 65 0 0 0-3.753-3.058 41 41 0 0 0-1.662-1.222H53.8l-.182.037zm0 1.88 1.21.885a81 81 0 0 1 3.688 3.007 96 96 0 0 0 3.753 3.05l.773.593 1.4.959c.691.468 1.355.95 1.311.892.197.132.379.256.547.359v3.555a61 61 0 0 0-1.924-1.916l-.875-.732-4.03-3.343c-1.312-1.083-2.53-2.341-3.892-3.497a19 19 0 0 0-1.684-1.273.3.3 0 0 0-.109 0h-.16zm0 3.87q.59.419 1.16.893c1.304 1.097 2.52 2.355 3.898 3.504l4.038 3.343.729.622s2.776 2.034 2.689 1.917l.131.095v3.072c-.86-.936-1.924-2.019-1.924-2.019l-.845-.731a162 162 0 0 1-4.009-3.775c-.663-.658-1.297-1.266-1.968-1.946a23 23 0 0 0-2.15-1.851 34 34 0 0 0-1.69-1.207h-.073zm0 3.336c.343.242.686.483 1.02.732a21 21 0 0 1 2.034 1.756c.627.636 1.32 1.302 1.968 1.946a166 166 0 0 0 4.045 3.804l.729.658s.677.534 1.355 1.046 1.348.995 1.305.944l.196.132v3.811a12 12 0 0 0-.451-.658c-.766-1.083-1.96-2.531-1.96-2.531l-.78-.827c-2.435-2.575-4.913-5.121-7.573-7.513q-.765-.68-1.552-1.34h-.11a1 1 0 0 0-.211 0zm0 3.314 1.065.915c2.616 2.34 5.101 4.872 7.499 7.44l.67.731s2.507 2.363 2.427 2.239q.454.413.977.731v2.407a6 6 0 0 0-.263-.336c-.816-1.046-2.07-2.436-2.07-2.436l-.808-.798c-2.668-2.59-5.328-5.18-8.017-7.732a32 32 0 0 0-1.458-1.295zm.088 17.916v-.9l.11.096c.393.336.794.636 1.027.804zm2.63 0c0-.036 0-.065-.05-.102a4.5 4.5 0 0 0-.51-.732s-.62-.424-1.16-.885a4.5 4.5 0 0 1-.648-.65 1 1 0 0 1-.138-.235h-.139v-1.105c.416.286.948.68 1.458 1.098 1.05.848 2.048 1.77 2.048 1.77s.896.622 1.217.834zm2.916 0a2.2 2.2 0 0 0-.233-.431q-.428-.662-.933-1.266s-1.028-.944-2.128-1.836a26 26 0 0 0-1.567-1.193 6 6 0 0 0-.729-.46v-1.895l.729.636a93 93 0 0 1 3.644 3.329l.729.666 1.326 1.082c.656.534 1.32 1.04 1.276.98.204.147.408.279.583.388zm3.367 0a6.4 6.4 0 0 0-.729-.87 86 86 0 0 0-2.128-2.37l-.823-.776c-1.217-1.134-2.434-2.282-3.717-3.373a44 44 0 0 0-1.56-1.272v-1.954q.732.543 1.407 1.156c2.543 2.29 5.021 4.653 7.543 7.001l.729.666 1.333 1.068.94.732zm1.654-2.597-.736-.775c-2.5-2.327-4.992-4.712-7.557-7.016a17 17 0 0 0-1.64-1.339.23.23 0 0 0-.117 0 .8.8 0 0 0-.466.14v-2.832l.597.556a569 569 0 0 1 8.017 7.71l.73.681s2.608 2.254 2.528 2.13q.35.293.729.548v.468s.058.863.11 1.705v.343c-.832-1.01-2.093-2.326-2.093-2.326z"/></svg>