<svg xmlns="http://www.w3.org/2000/svg" width="54" height="40" fill="none"><path fill="#246BFD" d="M40 32a8 8 0 0 1-8 8H16C7.163 40 0 32.837 0 24v-6.857C0 7.675 7.675 0 17.143 0 29.767 0 40 10.234 40 22.857z" opacity=".1"/><path fill="#246BFD" d="M44.57 2.583v34.834c0 .435-.179.83-.466 1.118a1.58 1.58 0 0 1-1.118.465H25.015c-.873 0-1.583-.71-1.583-1.583V2.583c0-.435.178-.83.465-1.118A1.58 1.58 0 0 1 25.015 1h17.968c.874 0 1.586.71 1.586 1.583m-1.188 34.834v-3.785H24.619v3.785c0 .217.178.395.396.395h17.968c.22 0 .399-.178.399-.395m0-4.973V6.359H24.619v26.085zm0-27.273V2.583a.397.397 0 0 0-.396-.396H25.015a.397.397 0 0 0-.396.396v2.588z"/><path fill="#246BFD" d="M41.193 9.004a.594.594 0 0 1 0 1.187H36.64a.594.594 0 0 1 0-1.187zm0 2.805a.592.592 0 1 1 0 1.188H36.64a.594.594 0 0 1 0-1.188zm0 2.808a.593.593 0 1 1 0 1.188H36.64a.594.594 0 0 1 0-1.188zm0 3.637c.33 0 .594.265.594.594a.59.59 0 0 1-.594.593h-3.877a.594.594 0 0 1 0-1.187zm-.001 2.809a.592.592 0 1 1 0 1.188h-6.647a.594.594 0 0 1 0-1.189zm.002 2.804c.329 0 .593.265.593.594s-.264.594-.593.594h-3.926a.594.594 0 0 1 0-1.188zm-.001 2.809c.33 0 .594.265.594.594s-.265.593-.594.593H34.2a.594.594 0 0 1 0-1.187zm0 2.804c.33 0 .594.265.594.594 0 .33-.265.594-.594.594h-2.986a.594.594 0 0 1 0-1.187zm-5.033 5.645a.594.594 0 0 1 0 1.188h-4.32a.594.594 0 0 1 0-1.188zm-.18-5.645a.594.594 0 0 1 0 1.188h-9.171a.594.594 0 0 1 0-1.187zm-.792-11.226a.594.594 0 1 1 0 1.188h-8.38a.594.594 0 0 1 0-1.188zm-.05 5.613a.594.594 0 0 1 0 1.188h-8.33a.594.594 0 0 1 0-1.188zm-1.216-9.161a.59.59 0 0 1-.146.827l-1.95 1.365a.59.59 0 0 1-.6.045c-.822-.404-1.636-1.01-2.353-1.757a10.4 10.4 0 0 1-1.789-2.538c-.458-.918-.757-1.88-.863-2.786a.6.6 0 0 1 .25-.556L28.45 7.92a.59.59 0 0 1 .826.146l1.5 2.143a.59.59 0 0 1-.147.826l-.527.37q.202.35.436.684.252.361.534.692l.525-.366a.59.59 0 0 1 .826.146zm-1.313.196-.82-1.17-.467.326a.59.59 0 0 1-.77-.077 10.5 10.5 0 0 1-1.756-2.488.596.596 0 0 1 .19-.755l.476-.332-.82-1.167-1.192.836a7.6 7.6 0 0 0 .695 2.048c.198.396.43.787.693 1.16.272.39.572.755.89 1.087a7.6 7.6 0 0 0 1.713 1.35zm-.192 6.161a.594.594 0 0 1 0 1.188H26.81a.594.594 0 0 1 0-1.189zm-.396 5.613a.594.594 0 0 1 0 1.188H26.81a.594.594 0 0 1 0-1.188z"/></svg>