<svg xmlns="http://www.w3.org/2000/svg" width="54" height="40" fill="none"><path fill="#246BFD" d="M40 32a8 8 0 0 1-8 8H16C7.163 40 0 32.837 0 24v-6.857C0 7.675 7.675 0 17.143 0 29.767 0 40 10.234 40 22.857z" opacity=".1"/><path fill="#246BFD" d="M45.648 4.546V38.41a.59.59 0 0 1-.592.591h-3.669a.59.59 0 0 1-.59-.591v-3.585H27.202v3.585a.59.59 0 0 1-.591.591h-3.67a.59.59 0 0 1-.59-.591V4.546A3.55 3.55 0 0 1 25.898 1H42.1a3.55 3.55 0 0 1 3.547 3.546m-1.183 33.27V34.82h-2.487v2.995zm0-4.177v-23.15h-20.93V33.64zm0-24.333V8.223h-20.93v1.083zm0-2.265V4.546A2.37 2.37 0 0 0 42.1 2.182H25.898a2.37 2.37 0 0 0-2.364 2.364v2.495zM26.022 37.816V34.82h-2.487v2.995z"/><path fill="#246BFD" d="M41.478 29.328c.01.323-.276.591-.592.591H27.111c-.315 0-.601-.268-.591-.59V20.09c0-.323.268-.591.59-.591h13.776c.323 0 .591.268.591.591zm-1.183-1.167v-6.723l-4.058 3.738zm-5.383-3.369 4.46-4.11H28.625l4.46 4.11q.006.004.01.01l.904.832.903-.832zm-5.999 3.945h10.173l-3.733-2.743-.95.877a.595.595 0 0 1-.806 0l-.95-.877zm-1.211-.576 4.058-2.985-4.058-3.738zm13.775-13.359v2.275a.59.59 0 0 1-.59.591H27.11a.59.59 0 0 1-.59-.59v-2.276a.59.59 0 0 1 .59-.591h13.776a.59.59 0 0 1 .591.591m-1.182 1.684v-1.093H27.702v1.093z"/></svg>