<svg xmlns="http://www.w3.org/2000/svg" width="56" height="40" fill="none"><path fill="#246BFD" d="M40 32a8 8 0 0 1-8 8H16C7.163 40 0 32.837 0 24v-6.857C0 7.675 7.675 0 17.143 0 29.767 0 40 10.234 40 22.857z" opacity=".1"/><path fill="#246BFD" d="M46.14 12.43v5.66a10.07 10.07 0 0 1-2.237 6.345 10.2 10.2 0 0 1-5.123 3.404v7.226h2.098a3.985 3.985 0 0 1 3.98 3.98c.015.37-.191.77-.62.77H27.763c-.415 0-.648-.397-.62-.77a3.985 3.985 0 0 1 3.98-3.98h2.098v-7.231a10.26 10.26 0 0 1-6.766-6.38 10.1 10.1 0 0 1-.594-3.427V12.43c0-.343.276-.62.62-.62h2.622V6.805c0-1.762.691-3.424 1.945-4.679A6.58 6.58 0 0 1 35.728.18h.549c1.762 0 3.424.691 4.679 1.945a6.58 6.58 0 0 1 1.945 4.68v5.006h2.622c.34 0 .617.278.617.619m-1.239 5.662v-5.043H42.9v5.317a6.58 6.58 0 0 1-1.946 4.678 6.58 6.58 0 0 1-4.679 1.946h-.55a6.58 6.58 0 0 1-4.678-1.946 6.58 6.58 0 0 1-1.946-4.678v-5.317h-2.003v4.978c0 4.114 2.896 7.784 6.886 8.728a8.7 8.7 0 0 0 2.054.235 9 9 0 0 0 1.969-.227l.02-.005a8.86 8.86 0 0 0 6.875-8.666M28.421 38.58h15.157a2.744 2.744 0 0 0-2.7-2.274h-9.755c-1.352 0-2.48.983-2.702 2.274m1.928-19.93h3.303a.62.62 0 0 1 0 1.238h-3.091a5.4 5.4 0 0 0 5.166 3.863h.55a5.4 5.4 0 0 0 5.166-3.863h-3.07a.62.62 0 0 1 0-1.239h3.28q.007-.141.007-.284v-2.934h-3.29a.62.62 0 0 1 0-1.238h3.29v-3.218h-3.29a.62.62 0 0 1 0-1.24h3.29l-.008-3.217H38.37a.62.62 0 0 1 0-1.239h3.07a5.4 5.4 0 0 0-5.166-3.863h-.55a5.4 5.4 0 0 0-5.166 3.863h3.094a.62.62 0 0 1 0 1.239H30.35l-.008 3.218h3.311a.62.62 0 0 1 0 1.239h-3.31v3.218h3.31a.618.618 0 1 1 0 1.239h-3.31zm7.192 16.417v-6.954c-.495.074-.996.116-1.499.116h-.041a10 10 0 0 1-1.543-.119v6.957z"/></svg>