<svg xmlns="http://www.w3.org/2000/svg" width="50" height="50" fill="none"><rect width="50" height="50" fill="#246BFD" rx="5"/><path fill="#fff" d="M30.712 34.64a.58.58 0 0 0-.571.587.58.58 0 0 0 .571.586.58.58 0 0 0 .572-.586.58.58 0 0 0-.572-.586m-11.426-.001a.58.58 0 0 0-.571.587.58.58 0 0 0 .571.586.58.58 0 0 0 .572-.586.58.58 0 0 0-.572-.586"/><path fill="#fff" d="M35.951 31.607a6.5 6.5 0 0 0-2.562-2.355.56.56 0 0 0-.325-.153 5.85 5.85 0 0 0-2.35-.492H29v-1.545a6.74 6.74 0 0 0 2.051-3.317h.235c1.26 0 2.285-1.05 2.285-2.343 0-.612-.23-1.17-.606-1.588q.053-.045.104-.098c.324-.332.502-.773.502-1.242 0-.771-.487-1.427-1.162-1.664-.202-2.693-2.046-4.995-4.585-5.716-.15-.806-.8-1.582-1.681-1.582h-2.286c-.882 0-1.53.776-1.68 1.582-2.54.721-4.384 3.022-4.586 5.716a1.7 1.7 0 0 0-.66.421 1.77 1.77 0 0 0-.502 1.243c0 .536.236 1.017.607 1.34a2.37 2.37 0 0 0-.607 1.588c0 1.292 1.025 2.343 2.285 2.343h.233A6.8 6.8 0 0 0 21 27.062v1.546h-1.714c-.812 0-1.601.166-2.35.491a.56.56 0 0 0-.324.154 6.5 6.5 0 0 0-2.563 2.355A6.8 6.8 0 0 0 13 35.227v3.69c0 .323.256.585.571.585H36.43a.58.58 0 0 0 .571-.586v-3.69a6.8 6.8 0 0 0-1.049-3.62M16.43 38.33h-2.286v-3.105c0-1.782.89-3.49 2.286-4.503zm14.857-15.757h-.026q.026-.292.026-.586V20.23c.63 0 1.143.525 1.143 1.171s-.513 1.172-1.143 1.172M22.144 12.33v2.628c0 .324.256.586.571.586a.58.58 0 0 0 .572-.586v-3.514c0-.363.299-.762.571-.762h2.286c.272 0 .571.399.571.762v3.514c0 .324.256.586.572.586a.58.58 0 0 0 .571-.586v-2.627c1.845.669 3.177 2.38 3.397 4.384H18.746c.22-2.004 1.552-3.715 3.397-4.385m-3.429 10.243c-.63 0-1.143-.526-1.143-1.172s.513-1.171 1.143-1.171v1.757q.001.293.026.586zm0-3.515h-.571a.58.58 0 0 1-.572-.585.6.6 0 0 1 .168-.414.56.56 0 0 1 .404-.172h13.714a.58.58 0 0 1 .572.586.6.6 0 0 1-.168.414.56.56 0 0 1-.404.171zm1.247 3.994-.004-.019a5.5 5.5 0 0 1-.1-1.046V20.23h10.286v1.757c0 .35-.034.702-.1 1.046l-.004.02a5.57 5.57 0 0 1-1.991 3.294c-.894.711-1.948 1.088-3.048 1.088s-2.154-.377-3.049-1.09a5.6 5.6 0 0 1-1.99-3.294m4.468 15.278h-4.572v-1.348a.58.58 0 0 0-.571-.585.58.58 0 0 0-.572.585v1.348h-1.143v-8.232q.557-.215 1.143-.286v3.656a.58.58 0 0 0 .572.586.58.58 0 0 0 .571-.586v-3.69h1.47l3.102 3.339zm-2.286-9.372v-1.091a5.89 5.89 0 0 0 5.714 0v1.09L25 32.035zm10.286 9.372h-1.143v-1.348a.58.58 0 0 0-.572-.585.58.58 0 0 0-.571.585v1.348H25.57v-5.214l3.102-3.338h1.47v3.69a.58.58 0 0 0 .571.586.58.58 0 0 0 .572-.586v-3.656q.586.071 1.143.286zm3.428 0h-2.286v-7.608a5.64 5.64 0 0 1 2.286 4.503z"/></svg>