<svg xmlns="http://www.w3.org/2000/svg" width="50" height="50" fill="none"><rect width="50" height="50" fill="#246BFD" rx="5"/><g clip-path="url(#a)"><path fill="#fff" d="M38.462 15H11.538c-.846 0-1.538.692-1.538 1.538v16.924c0 .846.692 1.538 1.539 1.538h26.923c.846 0 1.538-.692 1.538-1.538V16.538c0-.846-.692-1.538-1.538-1.538m-.578 1.154-11.999 9c-.216.164-.547.267-.885.265-.338.002-.67-.1-.885-.265l-12-9zm-6.41 9.594 6.54 8.077.02.021H11.966l.022-.021 6.538-8.077a.577.577 0 0 0-.897-.727l-6.474 7.999V16.875l12.269 9.202c.461.343 1.022.494 1.577.496.554-.001 1.115-.152 1.577-.496l12.269-9.202V33.02l-6.474-7.999a.577.577 0 1 0-.897.727"/></g><defs><clipPath id="a"><path fill="#fff" d="M10 10h30v30H10z"/></clipPath></defs></svg>