<svg xmlns="http://www.w3.org/2000/svg" width="50" height="50" fill="none"><rect width="50" height="50" fill="#246BFD" rx="5"/><path fill="#fff" d="M30.33 37.131H11.447a.447.447 0 0 1-.446-.446c0-.268.179-.447.446-.447h18.885a.447.447 0 0 1 0 .893"/><path fill="#fff" d="M30.334 37.129H14.173a.447.447 0 0 1-.446-.447v-11.38c0-.223.178-.447.446-.447s.446.179.446.447v10.934h15.715c.223 0 .446.178.446.446a.447.447 0 0 1-.446.447"/><path fill="#fff" d="M13.009 26.195a1.96 1.96 0 0 1-1.429-.58 2.06 2.06 0 0 1-.58-1.429c0-.49.223-.981.536-1.383l10.223-10.22a3.61 3.61 0 0 1 5.134 0l4.375 4.373a.43.43 0 0 1 0 .625.43.43 0 0 1-.625 0l-4.375-4.373a2.75 2.75 0 0 0-3.884 0L12.205 23.383c-.178.223-.312.536-.312.803 0 .224.044.536.312.804a1.186 1.186 0 0 0 1.652 0l10.179-10.176a.43.43 0 0 1 .625 0l3.705 3.704a.43.43 0 0 1 0 .625.43.43 0 0 1-.625 0l-3.393-3.392-9.866 9.864c-.402.401-.937.58-1.473.58M25.688 37.13h-6.34a.447.447 0 0 1-.446-.446v-8.122c0-.715.58-1.34 1.34-1.34h4.598c.714 0 1.295.625 1.295 1.34v8.122a.48.48 0 0 1-.447.446m-5.893-.892h5.447V28.56c0-.267-.224-.446-.402-.446h-4.598a.447.447 0 0 0-.447.447zm13.301.844c-.58 0-1.116-.312-1.428-.803-1.563-2.589-5.09-8.837-5.09-11.515a6.477 6.477 0 0 1 6.473-6.471c3.572 0 6.518 2.9 6.518 6.471 0 1.875-1.696 5.713-5 11.515-.357.49-.893.803-1.473.803m-.045-17.896a5.58 5.58 0 0 0-5.58 5.578c0 2.5 3.795 9.105 4.955 11.068a.85.85 0 0 0 .715.402c.312 0 .535-.134.714-.402 3.973-7.006 4.822-9.907 4.822-11.068 0-3.08-2.5-5.578-5.626-5.578"/><path fill="#fff" d="M33.101 28.914c-2.277 0-4.152-1.874-4.152-4.15s1.875-4.15 4.152-4.15 4.152 1.874 4.152 4.15-1.875 4.15-4.152 4.15m0-7.408a3.277 3.277 0 0 0-3.259 3.258 3.277 3.277 0 0 0 3.26 3.258 3.277 3.277 0 0 0 3.258-3.258 3.277 3.277 0 0 0-3.259-3.258M20.689 32.977a.447.447 0 0 1-.447-.446v-.58c0-.224.179-.447.447-.447.267 0 .446.178.446.446v.58a.48.48 0 0 1-.446.447"/></svg>