<svg xmlns="http://www.w3.org/2000/svg" width="60" height="60" fill="none"><path fill="#E4EAF8" d="M56.815 25.838h-4.84a.34.34 0 0 1-.335-.275 22 22 0 0 0-3.201-7.727.34.34 0 0 1 .042-.432l3.422-3.422a1.685 1.685 0 0 0 0-2.383l-3.502-3.503a1.685 1.685 0 0 0-2.383 0l-3.422 3.423a.34.34 0 0 1-.432.042 22 22 0 0 0-7.727-3.202.34.34 0 0 1-.275-.334v-4.84c0-.93-.755-1.685-1.686-1.685h-4.953c-.93 0-1.685.754-1.685 1.685v4.84a.34.34 0 0 1-.275.334 22 22 0 0 0-7.727 3.202.34.34 0 0 1-.432-.042l-3.422-3.423a1.685 1.685 0 0 0-2.383 0L8.096 11.6a1.685 1.685 0 0 0 0 2.383l3.423 3.422a.34.34 0 0 1 .042.431 22 22 0 0 0-3.202 7.728.34.34 0 0 1-.334.275h-4.84c-.93 0-1.685.755-1.685 1.686v4.952c0 .931.754 1.686 1.685 1.686h4.84a.34.34 0 0 1 .334.275 22 22 0 0 0 3.202 7.727.34.34 0 0 1-.042.432l-3.423 3.422a1.685 1.685 0 0 0 0 2.383l3.503 3.503a1.685 1.685 0 0 0 2.383 0l3.422-3.423a.34.34 0 0 1 .432-.042 22 22 0 0 0 7.727 3.202.34.34 0 0 1 .275.334v4.84c0 .93.755 1.685 1.685 1.685h4.953c.931 0 1.686-.755 1.686-1.685v-4.84a.34.34 0 0 1 .275-.334 22 22 0 0 0 7.727-3.202.34.34 0 0 1 .431.042l3.423 3.423a1.685 1.685 0 0 0 2.383 0l3.503-3.503a1.685 1.685 0 0 0 0-2.383l-3.423-3.422a.34.34 0 0 1-.042-.432 22 22 0 0 0 3.202-7.727.34.34 0 0 1 .334-.275h4.84c.93 0 1.685-.755 1.685-1.686v-4.953c0-.93-.755-1.685-1.685-1.685"/><path fill="#D8DCE5" d="M11.519 17.406a.34.34 0 0 1 .042.431 22 22 0 0 0-3.202 7.728.34.34 0 0 1-.334.275h2.294a.34.34 0 0 0 .334-.275 22 22 0 0 1 3.202-7.728.34.34 0 0 0-.042-.43l-3.423-3.423a1.685 1.685 0 0 1 0-2.384l3.502-3.502.045-.04a1.684 1.684 0 0 0-2.338.04L8.096 11.6a1.685 1.685 0 0 0 0 2.384zM3.794 32.478v-4.953c0-.93.754-1.685 1.685-1.685H3.185c-.93 0-1.685.755-1.685 1.686v4.952c0 .931.754 1.686 1.685 1.686H5.48c-.93 0-1.685-.755-1.685-1.686m10.099 19.428-3.503-3.503a1.685 1.685 0 0 1 0-2.383l3.423-3.423a.34.34 0 0 0 .042-.43 22 22 0 0 1-3.202-7.728.34.34 0 0 0-.335-.275H8.026a.34.34 0 0 1 .334.275 22 22 0 0 0 3.202 7.727.34.34 0 0 1-.042.431L8.096 46.02a1.685 1.685 0 0 0 0 2.383l3.503 3.503a1.684 1.684 0 0 0 2.338.04z"/><path fill="#FECA57" d="M30.03 44.547c8.032 0 14.544-6.512 14.544-14.545S38.062 15.457 30.03 15.457s-14.545 6.512-14.545 14.545 6.512 14.545 14.545 14.545"/><path fill="#F4B537" d="M29.998 41.355c6.27 0 11.353-5.083 11.353-11.353s-5.083-11.354-11.353-11.354-11.353 5.083-11.353 11.354 5.083 11.353 11.353 11.353"/><path fill="#F4B537" d="M17.778 30.002c0-7.647 5.901-13.915 13.398-14.5a15 15 0 0 0-1.147-.045c-8.033 0-14.545 6.512-14.545 14.545 0 8.032 6.512 14.544 14.545 14.544q.579 0 1.147-.045c-7.497-.584-13.398-6.853-13.398-14.5"/><path fill="#E59D1F" d="M20.938 30.001c0-5.882 4.475-10.72 10.206-11.295a12 12 0 0 0-1.147-.058c-6.27 0-11.352 5.083-11.352 11.353s5.082 11.353 11.352 11.353q.582 0 1.147-.057C25.413 40.722 20.938 35.884 20.938 30"/><path fill="#E4EAF8" d="M33.155 33.343a.86.86 0 0 1 .145-1.208l2.719-2.134-2.72-2.135a.86.86 0 0 1 1.063-1.353l3.58 2.81a.86.86 0 0 1 0 1.354l-3.58 2.812a.86.86 0 0 1-1.208-.146m-7.52.145-3.58-2.81a.86.86 0 0 1 0-1.354l3.58-2.811a.86.86 0 0 1 1.063 1.353l-2.719 2.135 2.72 2.134a.86.86 0 0 1-1.063 1.354m3.15 1.417a.86.86 0 0 1-.628-1.041l2.014-8.14a.86.86 0 1 1 1.67.413l-2.014 8.14a.86.86 0 0 1-1.041.628"/><path fill="#D8DCE5" d="M28.132 3.185c0-.93.754-1.685 1.685-1.685h-2.294c-.93 0-1.685.755-1.685 1.685v4.84a.34.34 0 0 1-.276.334s.87-.223 1.878-.305a.75.75 0 0 0 .692-.747zm0 53.63v-4.123a.743.743 0 0 0-.696-.74 9 9 0 0 1-1.815-.294.34.34 0 0 1 .217.317v4.84c0 .93.755 1.685 1.685 1.685h2.294c-.93 0-1.685-.755-1.685-1.685"/></svg>