<svg xmlns="http://www.w3.org/2000/svg" width="60" height="60" fill="none"><path fill="#576574" d="M52.226 48.415H7.776a4.84 4.84 0 0 1-4.835-4.835V13.875a4.84 4.84 0 0 1 4.836-4.836h44.45a4.84 4.84 0 0 1 4.835 4.836V43.58a4.84 4.84 0 0 1-4.836 4.835"/><path fill="#3E4B5A" d="M5.263 43.58V13.875A4.84 4.84 0 0 1 10.1 9.038H7.777a4.84 4.84 0 0 0-4.836 4.836V43.58a4.84 4.84 0 0 0 4.836 4.835h2.322a4.84 4.84 0 0 1-4.836-4.835"/><path fill="#E4EAF8" d="M6.809 17.988v25.593c0 .522.44.963.962.963h44.45a.976.976 0 0 0 .962-.963V17.988z"/><path fill="#D8DCE5" d="M9.13 43.582V17.987H6.81v25.594c0 .521.44.962.962.962h2.322a.975.975 0 0 1-.963-.962"/><path fill="#54A0FF" d="M52.22 12.914H7.77a.975.975 0 0 0-.961.962v4.228h46.374v-4.228a.975.975 0 0 0-.963-.962"/><path fill="#FF6B6B" d="M12.6 12.914H7.77a.975.975 0 0 0-.961.962v4.228H12.6z"/><path fill="#EE5253" d="M10.073 12.914H7.771a.975.975 0 0 0-.962.962v4.228H9.11v-4.228c0-.521.44-.962.962-.962"/><path fill="#E4EAF8" d="M56.122 48.414H3.878A2.385 2.385 0 0 0 1.5 50.792v1.66a2.385 2.385 0 0 0 2.378 2.378h52.244a2.385 2.385 0 0 0 2.378-2.378v-1.66a2.385 2.385 0 0 0-2.378-2.378"/><path fill="#D8DCE5" d="M56.122 52.508H3.878a2.384 2.384 0 0 1-2.352-2.047 2.4 2.4 0 0 0-.026.33v1.661a2.385 2.385 0 0 0 2.378 2.378h52.244a2.385 2.385 0 0 0 2.378-2.378v-1.66q-.001-.17-.026-.331a2.384 2.384 0 0 1-2.352 2.047"/><path fill="#D8DCE5" d="M19.594 48.414v2.776c0 .234.198.432.432.432h19.949a.44.44 0 0 0 .431-.432v-2.776z"/><path fill="#C3C8D1" d="M21.916 51.19v-2.776h-2.322v2.776c0 .234.198.432.432.432h2.322a.44.44 0 0 1-.432-.432"/><path fill="#ACD6FC" d="M30 36.95q-.311 0-.61-.098a20.385 20.385 0 0 1-13.992-19.384V7.105c0-1.07.867-1.937 1.937-1.937h25.329c1.07 0 1.936.867 1.936 1.937v10.363a20.385 20.385 0 0 1-13.992 19.384 2 2 0 0 1-.608.098"/><path fill="#8AC2FF" d="M17.692 17.468V7.105c0-1.07.867-1.937 1.937-1.937h-2.294c-1.07 0-1.937.867-1.937 1.937v10.363a20.38 20.38 0 0 0 13.993 19.384c.395.13.822.13 1.218 0q.27-.09.537-.187a20.38 20.38 0 0 1-13.454-19.197"/><path fill="#54A0FF" d="M40.728 9.41a.37.37 0 0 0-.37-.37H30v10.913h10.541q.187-1.236.187-2.486z"/><path fill="#FECA57" d="M30.002 9.04H19.644a.37.37 0 0 0-.37.37v8.057q.002 1.264.186 2.486h10.542zm0 23.892a.4.4 0 0 0 .134-.024c9.629-3.703 10.243-12.791 10.407-12.955H30.002z"/><path fill="#54A0FF" d="M19.46 19.953c.116.115.851 8.89 9.85 12.728.447.19.577.252.692.252v-12.98z"/><path fill="#F4B537" d="M21.567 9.41a.37.37 0 0 1 .37-.37h-2.293a.37.37 0 0 0-.37.37v8.057q.002 1.264.186 2.486h2.294a17 17 0 0 1-.187-2.486z"/><path fill="#338DEF" d="M21.755 19.953H19.46c.115.115.85 8.89 9.85 12.728.445.19.576.252.691.252v-1.041c-7.603-4.241-8.102-11.794-8.247-11.939"/></svg>