<svg xmlns="http://www.w3.org/2000/svg" width="60" height="60" fill="none"><path fill="#ACD6FC" d="M34.098 53.763a.78.78 0 0 1 0-1.105l1.585-1.586a.16.16 0 0 0 .02-.2 10.2 10.2 0 0 1-1.484-3.58.16.16 0 0 0-.155-.128h-2.242a.78.78 0 0 1-.781-.78v-2.296a.78.78 0 0 1 .78-.78h2.243c.076 0 .14-.054.155-.128a10.2 10.2 0 0 1 1.484-3.581.16.16 0 0 0-.02-.2l-1.586-1.586a.78.78 0 0 1 0-1.105l1.623-1.622a.78.78 0 0 1 1.105 0l1.586 1.586a.16.16 0 0 0 .2.02 10.2 10.2 0 0 1 3.58-1.484.16.16 0 0 0 .128-.156V32.81a.78.78 0 0 1 .781-.781h2.295a.78.78 0 0 1 .781.78v2.243c0 .076.054.14.128.156q.816.167 1.593.465c.582-2.404.887-4.906.887-7.464V6.256A4.76 4.76 0 0 0 44.028 1.5H7.248a4.76 4.76 0 0 0-4.756 4.756V28.21a31.54 31.54 0 0 0 21.65 29.992 4.75 4.75 0 0 0 2.992 0 31.7 31.7 0 0 0 7.658-3.743z"/><path fill="#8AC2FF" d="M26.434 58.201A31.54 31.54 0 0 1 4.784 28.21V6.256A4.76 4.76 0 0 1 9.54 1.5H7.248a4.76 4.76 0 0 0-4.756 4.756V28.21a31.54 31.54 0 0 0 21.65 29.992c.854.283 1.77.318 2.642.101a5 5 0 0 1-.35-.1"/><path fill="#54A0FF" d="M44.027 5.39h-18.39v22.03h19.257V6.259a.87.87 0 0 0-.867-.867"/><path fill="#FECA57" d="M25.64 5.39H7.25a.87.87 0 0 0-.867.868v21.163H25.64z"/><path fill="#F4B537" d="M9.542 5.39H7.25a.87.87 0 0 0-.867.868v21.163h2.291V6.258c0-.478.39-.867.868-.867"/><path fill="#FECA57" d="M25.637 54.553a.9.9 0 0 0 .273-.044 27.7 27.7 0 0 0 9.03-5.013 10.2 10.2 0 0 1-.722-2.205.16.16 0 0 0-.155-.127H31.82a.78.78 0 0 1-.78-.782v-2.295a.78.78 0 0 1 .78-.78h2.243a.16.16 0 0 0 .155-.128 10.2 10.2 0 0 1 1.483-3.581.16.16 0 0 0-.02-.2l-1.585-1.586a.78.78 0 0 1 0-1.104l1.623-1.623a.78.78 0 0 1 1.104 0l1.586 1.586a.16.16 0 0 0 .2.02 10.2 10.2 0 0 1 3.58-1.484.16.16 0 0 0 .128-.155v-2.243a.78.78 0 0 1 .781-.78h1.534q.262-1.902.262-3.82v-.791H25.637z"/><path fill="#54A0FF" d="M6.383 27.418v.79c0 11.97 7.63 22.54 18.984 26.301q.067.023.135.033l.025.002a1 1 0 0 0 .113.009V27.418z"/><path fill="#338DEF" d="M8.674 28.209v-.791H6.383v.79c0 11.97 7.63 22.54 18.984 26.301q.067.023.135.033l.025.002a1 1 0 0 0 .113.009v-.8A27.66 27.66 0 0 1 8.674 28.208"/><path fill="#E4EAF8" d="M56.67 43.247h-2.242a.1.1 0 0 1-.099-.082 10.2 10.2 0 0 0-1.492-3.6.1.1 0 0 1 .012-.129l1.586-1.586a.84.84 0 0 0 0-1.185l-1.623-1.623a.84.84 0 0 0-1.185 0l-1.586 1.586a.1.1 0 0 1-.128.012 10.2 10.2 0 0 0-3.6-1.492.1.1 0 0 1-.083-.099v-2.242a.84.84 0 0 0-.838-.838h-2.295a.84.84 0 0 0-.838.838v2.242a.1.1 0 0 1-.082.1 10.2 10.2 0 0 0-3.6 1.492.1.1 0 0 1-.129-.013l-1.586-1.586a.84.84 0 0 0-1.185 0l-1.623 1.623a.84.84 0 0 0 0 1.186l1.586 1.586a.1.1 0 0 1 .012.127 10.2 10.2 0 0 0-1.492 3.601.1.1 0 0 1-.099.082H31.82a.84.84 0 0 0-.838.838v2.295a.84.84 0 0 0 .838.839h2.242c.048 0 .09.034.1.081a10.2 10.2 0 0 0 1.491 3.601.1.1 0 0 1-.012.128l-1.586 1.586a.84.84 0 0 0 0 1.186l1.623 1.623a.83.83 0 0 0 .914.182.8.8 0 0 0 .271-.182l1.586-1.586a.1.1 0 0 1 .128-.013 10.2 10.2 0 0 0 3.601 1.492c.047.01.082.052.082.1v2.242a.84.84 0 0 0 .838.838h2.295a.84.84 0 0 0 .838-.838v-2.243c0-.047.035-.09.082-.099a10.2 10.2 0 0 0 3.601-1.492.1.1 0 0 1 .128.013l1.586 1.586a.84.84 0 0 0 1.185 0l1.623-1.623a.84.84 0 0 0 0-1.186L52.85 51.03a.1.1 0 0 1-.012-.128 10.2 10.2 0 0 0 1.492-3.6.1.1 0 0 1 .1-.082h2.241a.84.84 0 0 0 .839-.839v-2.295a.84.84 0 0 0-.839-.838"/><path fill="#D8DCE5" d="M36.346 53.8a.84.84 0 0 1 0-1.185l1.586-1.586a.1.1 0 0 0 .012-.128 10.2 10.2 0 0 1-1.492-3.6.1.1 0 0 0-.1-.083H34.11a.84.84 0 0 1-.838-.838v-2.295a.84.84 0 0 1 .838-.838h2.243c.048 0 .09-.035.099-.082a10.2 10.2 0 0 1 1.492-3.6.1.1 0 0 0-.012-.129l-1.586-1.586a.84.84 0 0 1 0-1.185l1.07-1.07-.554-.553a.84.84 0 0 0-1.185 0l-1.623 1.623a.84.84 0 0 0 0 1.185l1.586 1.586a.1.1 0 0 1 .012.128 10.2 10.2 0 0 0-1.492 3.601.1.1 0 0 1-.099.082H31.82a.84.84 0 0 0-.838.838v2.295a.84.84 0 0 0 .838.838h2.242c.048 0 .09.035.1.082a10.2 10.2 0 0 0 1.491 3.601.1.1 0 0 1-.012.128l-1.586 1.586a.84.84 0 0 0 0 1.185l1.623 1.623a.83.83 0 0 0 .914.182.8.8 0 0 0 .271-.182l.553-.553z"/><path fill="#1DD1A1" d="M44.26 51.578a6.342 6.342 0 1 0 0-12.683 6.342 6.342 0 0 0 0 12.683"/><path fill="#15BA8B" d="M40.21 45.236A6.34 6.34 0 0 1 45.406 39a6.342 6.342 0 1 0 0 12.473 6.34 6.34 0 0 1-5.196-6.237"/><path fill="#E4EAF8" d="m42.95 47.75-1.79-1.754a.86.86 0 0 1 1.202-1.228l1.19 1.167 2.936-2.86a.86.86 0 0 1 1.2 1.23l-3.537 3.447a.86.86 0 0 1-1.201-.001"/><path fill="#D8DCE5" d="M44.553 32.807a.84.84 0 0 1 .838-.838H43.1a.84.84 0 0 0-.839.838v2.242a.1.1 0 0 1-.081.1s.592-.085 2.01-.098a.37.37 0 0 0 .363-.367zm0 24.852v-1.883a.36.36 0 0 0-.359-.36c-1.498-.008-1.882-.06-1.98-.085a.1.1 0 0 1 .047.085v2.243a.84.84 0 0 0 .839.838h2.291a.84.84 0 0 1-.838-.838"/></svg>