<svg xmlns="http://www.w3.org/2000/svg" width="65" height="65" fill="none"><circle cx="32.5" cy="32.5" r="32.5" fill="#fff"/><path fill="#54A0FF" d="M43.689 32.697q-.695.003-1.366.18a.18.18 0 0 1-.228-.177v-.003a7.283 7.283 0 0 0-11.594-5.87q.266.597.397 1.236a.09.09 0 0 0 .091.075h1.32a.46.46 0 0 1 .459.46v1.35a.46.46 0 0 1-.46.459H30.99a.09.09 0 0 0-.091.075 6 6 0 0 1-.873 2.106.09.09 0 0 0 .012.118l.933.933a.46.46 0 0 1 0 .65l-.955.954a.46.46 0 0 1-.65 0l-.932-.933a.09.09 0 0 0-.118-.011 6 6 0 0 1-2.106.872.09.09 0 0 0-.075.092v1.319a.46.46 0 0 1-.46.459h-1.35a.46.46 0 0 1-.46-.46v-1.319a.09.09 0 0 0-.074-.09 6 6 0 0 1-2.106-.873.09.09 0 0 0-.118.011l-.933.933a.46.46 0 0 1-.65 0l-.954-.955a.46.46 0 0 1 0-.65l.872-.87a5.48 5.48 0 0 0-4.026 5.256c-.013 3.027 2.528 5.503 5.554 5.503h22.28a5.415 5.415 0 0 0 5.413-5.551c-.072-2.928-2.505-5.29-5.434-5.279"/><path fill="#338DEF" d="M32.308 26.769h-.352a7 7 0 0 0-.266-.641l.019-.019q-.64.302-1.208.721.266.595.397 1.236a.09.09 0 0 0 .091.075h1.32a.46.46 0 0 1 .459.459v1.35a.46.46 0 0 1-.46.46H30.99a.09.09 0 0 0-.091.074 6 6 0 0 1-.873 2.107.094.094 0 0 0 .012.117l.933.933a.46.46 0 0 1 0 .65l-.955.954a.46.46 0 0 1-.65 0l-.932-.933a.09.09 0 0 0-.118-.011 6 6 0 0 1-2.106.873.09.09 0 0 0-.075.09v1.32a.46.46 0 0 1-.46.46h-1.35a.46.46 0 0 1-.46-.46v-1.32a.09.09 0 0 0-.074-.09 6 6 0 0 1-2.106-.873.09.09 0 0 0-.118.011l-.933.933a.46.46 0 0 1-.65 0l-.954-.954a.46.46 0 0 1 0-.65l.872-.872c-.88.242-1.7.708-2.37 1.36v.001a5.46 5.46 0 0 0-1.656 3.897c-.013 3.026 2.528 5.503 5.554 5.503h1.338c-3.026 0-5.567-2.477-5.554-5.503.003-.995.28-1.97.798-2.82.074.081-.14-.134 1.003 1.008a1.83 1.83 0 0 0 2.589 0l.25-.25q.314.15.64.266v.353c0 1.01.822 1.83 1.831 1.83h1.35c1.01 0 1.831-.82 1.831-1.83v-.353q.327-.118.641-.265l.25.249a1.83 1.83 0 0 0 2.59 0l.954-.955a1.83 1.83 0 0 0 0-2.589l-.25-.25q.148-.313.266-.64h.352c1.01 0 1.831-.822 1.831-1.831V28.6c0-1.01-.821-1.831-1.83-1.831"/><path fill="#E4EAF8" d="M32.306 28.103h-1.319a.06.06 0 0 1-.058-.049 6 6 0 0 0-.878-2.118.06.06 0 0 1 .007-.075l.933-.933a.49.49 0 0 0 0-.697l-.954-.955a.49.49 0 0 0-.697 0l-.933.933a.06.06 0 0 1-.076.008 6 6 0 0 0-2.118-.878.06.06 0 0 1-.048-.058v-1.32a.493.493 0 0 0-.493-.492h-1.35a.493.493 0 0 0-.493.493v1.319a.06.06 0 0 1-.048.058 6 6 0 0 0-2.118.878.06.06 0 0 1-.076-.008l-.932-.933a.49.49 0 0 0-.697 0l-.955.955a.49.49 0 0 0 0 .697l.933.933a.06.06 0 0 1 .007.075 6 6 0 0 0-.877 2.118.06.06 0 0 1-.059.049h-1.319a.493.493 0 0 0-.493.493v1.35c0 .271.221.492.493.492h1.32a.06.06 0 0 1 .058.049c.153.756.451 1.475.877 2.118.044.067.014.054-.94 1.008a.49.49 0 0 0 0 .697l.955.955a.49.49 0 0 0 .697 0l.933-.933a.06.06 0 0 1 .075-.008 6 6 0 0 0 2.118.878.06.06 0 0 1 .048.059v1.319c0 .271.221.492.493.492h1.35a.493.493 0 0 0 .493-.492v-1.32a.06.06 0 0 1 .048-.058 6 6 0 0 0 2.118-.877.06.06 0 0 1 .076.007l.933.933a.493.493 0 0 0 .697 0l.954-.955a.493.493 0 0 0 0-.697l-.933-.933a.06.06 0 0 1-.007-.075 6 6 0 0 0 .878-2.118.06.06 0 0 1 .058-.049h1.32a.493.493 0 0 0 .492-.492v-1.35a.493.493 0 0 0-.493-.493"/><path fill="#D8DCE5" d="M20.357 34.31a.494.494 0 0 1 0-.696l.933-.933a.06.06 0 0 0 .007-.075 6 6 0 0 1-.878-2.119.06.06 0 0 0-.058-.048h-1.32a.493.493 0 0 1-.492-.493v-1.35c0-.271.221-.492.493-.492h1.319a.06.06 0 0 0 .058-.049 6 6 0 0 1 .878-2.118.06.06 0 0 0-.007-.075l-.933-.933a.493.493 0 0 1 0-.697l.626-.626-.328-.329a.49.49 0 0 0-.697 0l-.955.955a.493.493 0 0 0 0 .697l.933.933a.06.06 0 0 1 .007.075 6 6 0 0 0-.877 2.118.06.06 0 0 1-.059.049h-1.319a.493.493 0 0 0-.493.492v1.35c0 .272.221.493.493.493h1.32a.06.06 0 0 1 .058.049 6 6 0 0 0 .877 2.118c.044.066.014.054-.94 1.008a.493.493 0 0 0 0 .697l.955.954a.49.49 0 0 0 .697 0l.328-.328z"/><path fill="#1DD1A1" d="M25.004 33a3.73 3.73 0 1 0 0-7.461 3.73 3.73 0 0 0 0 7.46"/><path fill="#15BA8B" d="M22.612 29.27a3.73 3.73 0 0 1 3.06-3.67q-.331-.06-.668-.06a3.73 3.73 0 1 0 .669 7.399 3.73 3.73 0 0 1-3.061-3.67"/><path fill="#E4EAF8" d="m24.24 30.747-1.053-1.032a.502.502 0 1 1 .703-.717l.703.689 1.728-1.685a.503.503 0 0 1 .7.719l-2.08 2.027a.5.5 0 0 1-.7-.001"/><path fill="#D8DCE5" d="M25.183 21.962c0-.271.22-.492.491-.493h-1.352a.493.493 0 0 0-.492.493v1.319a.06.06 0 0 1-.049.058s.12-.051 1.18-.058a.223.223 0 0 0 .222-.222zm0 14.618v-1.038a.283.283 0 0 0-.28-.283c-.878-.009-1.122-.057-1.122-.057a.06.06 0 0 1 .049.059v1.319a.493.493 0 0 0 .493.492h1.351a.493.493 0 0 1-.49-.492"/></svg>