<svg xmlns="http://www.w3.org/2000/svg" width="65" height="65" fill="none"><circle cx="32.5" cy="32.5" r="32.5" fill="#fff"/><path fill="#576574" d="M49.125 35.985V18.831a2.13 2.13 0 0 0-2.127-2.128H18.002a2.13 2.13 0 0 0-2.127 2.128v17.154z"/><path fill="#3E4B5A" d="M19.34 16.703h-1.338a2.13 2.13 0 0 0-2.127 2.128v17.154h1.338V18.831a2.13 2.13 0 0 1 2.127-2.128"/><path fill="#D8DCE5" d="M30.137 40.563h4.727v5.854h-4.727z"/><path fill="#C3C8D1" d="M30.137 40.563h1.338v5.854h-1.338z"/><path fill="#E4EAF8" d="M15.875 35.852v3.15a2.13 2.13 0 0 0 2.127 2.127h28.996A2.13 2.13 0 0 0 49.125 39v-3.15z"/><path fill="#D8DCE5" d="M17.208 39.001v-3.15h-1.333v3.15a2.13 2.13 0 0 0 2.127 2.128h1.333A2.13 2.13 0 0 1 17.207 39"/><path fill="#54A0FF" d="M46.14 19.07H18.698a.46.46 0 0 0-.459.459v16.326h28.523V19.69a.62.62 0 0 0-.62-.62"/><path fill="#338DEF" d="M20.035 19.07h-1.338a.46.46 0 0 0-.459.459v16.326h1.338V19.529a.46.46 0 0 1 .459-.459"/><path fill="#E4EAF8" d="M39.906 45.852H25.092a.787.787 0 0 0-.787.787v.866c0 .435.352.787.787.787h14.814a.787.787 0 0 0 .787-.787v-.866a.787.787 0 0 0-.787-.787"/><path fill="#D8DCE5" d="M39.906 46.955H25.092a.79.79 0 0 1-.751-.552.8.8 0 0 0-.036.236v.867c0 .434.352.787.787.787h14.814a.787.787 0 0 0 .787-.787v-.867a.8.8 0 0 0-.036-.236.79.79 0 0 1-.75.552m-5.792-7.967h-3.23a.502.502 0 0 1 0-1.004h3.23a.502.502 0 1 1 0 1.004"/><path fill="#338DEF" d="M27.002 22.238a6 6 0 0 1 .505-.93.096.096 0 0 0-.012-.122l-.964-.964a.474.474 0 0 1 0-.67l.48-.482h-8.314a.46.46 0 0 0-.459.459v2.709zM46.76 19.69a.62.62 0 0 0-.62-.62h-8.153l.48.48a.474.474 0 0 1 0 .671l-.964.964a.096.096 0 0 0-.011.122 6 6 0 0 1 .504.93h8.764z"/><path fill="#FF6B6B" d="M21.773 22.238V19.07h-3.076a.46.46 0 0 0-.459.459v2.709z"/><path fill="#EE5253" d="M18.238 19.529v2.709h1.338v-2.71a.46.46 0 0 1 .459-.458h-1.338a.46.46 0 0 0-.459.459"/><path fill="#E4EAF8" d="M40.047 23.54h-1.36a.06.06 0 0 1-.06-.05 6.2 6.2 0 0 0-.904-2.182.06.06 0 0 1 .008-.078l.961-.961a.51.51 0 0 0 0-.719l-.984-.984a.51.51 0 0 0-.719 0l-.961.962a.06.06 0 0 1-.078.007 6.2 6.2 0 0 0-2.183-.904.06.06 0 0 1-.05-.06v-1.36a.51.51 0 0 0-.507-.508h-1.392a.51.51 0 0 0-.508.508v1.36a.06.06 0 0 1-.05.06 6.2 6.2 0 0 0-2.183.904.06.06 0 0 1-.077-.007l-.962-.962a.51.51 0 0 0-.718 0l-.984.984a.51.51 0 0 0 0 .719l.961.961a.06.06 0 0 1 .008.078 6.2 6.2 0 0 0-.905 2.183.06.06 0 0 1-.06.05h-1.36a.51.51 0 0 0-.507.508v1.391c0 .28.228.508.508.508h1.36q.021 0 .038.014t.021.036c.159.779.466 1.52.905 2.183a.06.06 0 0 1-.008.077l-.961.962a.51.51 0 0 0 0 .719l.984.983a.505.505 0 0 0 .718 0l.962-.961a.06.06 0 0 1 .077-.008 6.2 6.2 0 0 0 2.183.905q.022.005.036.021.014.017.014.039v1.36c0 .28.228.508.508.508h1.392c.28 0 .508-.228.508-.508v-1.36a.06.06 0 0 1 .05-.06 6.2 6.2 0 0 0 2.182-.905.06.06 0 0 1 .078.008l.961.961c.199.199.52.199.719 0l.984-.983a.51.51 0 0 0 0-.72l-.962-.96a.06.06 0 0 1-.007-.078 6.2 6.2 0 0 0 .904-2.183.06.06 0 0 1 .06-.05h1.36c.28 0 .508-.228.508-.508v-1.39a.51.51 0 0 0-.508-.508"/><path fill="#D8DCE5" d="M27.725 29.935a.51.51 0 0 1 0-.719l.962-.961a.06.06 0 0 0 .007-.078 6.2 6.2 0 0 1-.904-2.183.06.06 0 0 0-.06-.05h-1.36a.51.51 0 0 1-.508-.508v-1.391c0-.28.228-.508.508-.508h1.36a.06.06 0 0 0 .06-.05c.158-.779.465-1.52.904-2.183a.06.06 0 0 0-.007-.077l-.962-.962a.51.51 0 0 1 0-.718l.649-.65-.335-.334a.51.51 0 0 0-.72 0l-.983.984a.51.51 0 0 0 0 .718l.961.962a.06.06 0 0 1 .008.077 6.2 6.2 0 0 0-.905 2.183.06.06 0 0 1-.06.05h-1.36a.51.51 0 0 0-.507.508v1.391c0 .28.228.509.508.509h1.36a.06.06 0 0 1 .06.05c.158.778.465 1.52.904 2.182a.06.06 0 0 1-.008.078l-.961.961a.51.51 0 0 0 0 .719l.984.984a.505.505 0 0 0 .718 0l.336-.336z"/><path fill="#1DD1A1" d="M32.52 28.588a3.845 3.845 0 1 0 0-7.69 3.845 3.845 0 0 0 0 7.69"/><path fill="#15BA8B" d="M30.065 24.743a3.845 3.845 0 0 1 3.15-3.78 3.845 3.845 0 1 0 0 7.562 3.845 3.845 0 0 1-3.15-3.782"/><path fill="#D8DCE5" d="M32.699 17.211c0-.28.228-.508.508-.508h-1.39a.51.51 0 0 0-.508.508v1.36a.06.06 0 0 1-.05.06s.36-.052 1.219-.06a.223.223 0 0 0 .22-.222zm0 15.067v-1.142a.22.22 0 0 0-.218-.218c-.908-.005-1.14-.036-1.2-.051a.06.06 0 0 1 .029.051v1.36a.51.51 0 0 0 .508.508h1.389a.51.51 0 0 1-.508-.508"/><path fill="#E4EAF8" d="m31.727 26.244-1.089-1.066a.504.504 0 0 1 .154-.822.5.5 0 0 1 .549.105l.738.723 1.798-1.753a.503.503 0 0 1 .7.72l-2.149 2.094a.5.5 0 0 1-.701 0"/></svg>