<svg xmlns="http://www.w3.org/2000/svg" width="65" height="65" fill="none"><circle cx="32.5" cy="32.5" r="32.5" fill="#fff"/><path fill="#576574" d="M23.179 27.484a3.8 3.8 0 0 0-3.8 3.8v1.504c.254-.236.615-.364.968-.316v-.19c0-.15.128-.27.277-.258 1.47.106 2.965-.361 4.095-1.1a.26.26 0 0 1 .331.04c.966 1.04.96 1 .96 1.135v.372c.387-.058.73.061.968.283v-1.47a3.8 3.8 0 0 0-3.8-3.8"/><path fill="#3E4B5A" d="M20.399 31.284a3.8 3.8 0 0 1 3.29-3.765 3.8 3.8 0 0 0-4.31 3.765v1.504c.254-.236.615-.364.968-.316v-.19a.26.26 0 0 1 .052-.155z"/><path fill="#FFBEAB" d="M25.96 32.32v2.148c.736.112 1.313-.42 1.313-1.074s-.578-1.185-1.312-1.075m-5.562 2.08v-2.08c-.642-.086-1.312.407-1.312 1.074 0 .653.576 1.186 1.313 1.074z"/><path fill="#F7AF9F" d="M26.882 32.562a1.16 1.16 0 0 0-.921-.243v2.082l-.002.067c.363.055.688-.047.923-.242zm-6.484 1.664a1.08 1.08 0 0 1-.39-.832c0-.322.156-.603.39-.799v-.275c-.642-.086-1.312.407-1.312 1.074 0 .653.576 1.186 1.313 1.074l-.001-.067z"/><path fill="#FFBEAB" d="M23.22 37.149a2.93 2.93 0 0 1-1.595-.45v1.49l1.588 1.96 1.587-1.96v-1.533a2.8 2.8 0 0 1-1.58.493"/><path fill="#F7AF9F" d="M22.642 37.093a2.8 2.8 0 0 1-1.017-.398v1.492l1.017 1.255z"/><path fill="#54A0FF" d="m29 39.713-4.2-1.627-1.588 1.96-1.588-1.96-4.195 1.627s-1.554.638-1.554 2.41v3.93a.36.36 0 0 0 .361.361h13.96a.36.36 0 0 0 .358-.358v-3.934c0-1.77-1.554-2.41-1.554-2.41"/><path fill="#338DEF" d="M16.892 46.054v-4.388c0-1.215.731-1.897 1.19-2.205l-.654.253s-1.553.639-1.553 2.41v3.93a.36.36 0 0 0 .361.362h1.017a.36.36 0 0 1-.361-.362"/><path fill="#FFCDBF" d="M25.049 30.864a.26.26 0 0 0-.331-.04c-1.13.738-2.626 1.205-4.095 1.1a.26.26 0 0 0-.277.257v2.27c0 1.46 1.143 2.792 2.872 2.792a2.795 2.795 0 0 0 2.791-2.792v-2.453c0-.136.006-.095-.96-1.134"/><path fill="#FFBEAB" d="M21.363 34.45v-2.522a6 6 0 0 1-.74-.005.26.26 0 0 0-.277.258v2.27c0 1.459 1.143 2.791 2.872 2.791q.24 0 .468-.04a2.796 2.796 0 0 1-2.323-2.751"/><path fill="#338DEF" d="m25.13 41.053 1.187-2.38-1.516-.587-1.588 1.96 1.548 1.1a.25.25 0 0 0 .369-.093"/><path fill="#338DEF" d="m21.3 41.053-1.187-2.38 1.517-.587 1.588 1.96-1.548 1.1a.25.25 0 0 1-.37-.093"/><path fill="#FF6B6B" d="M23.214 40.04h-.002l-1.126.8.532.801h1.19l.532-.8z"/><path fill="#FC8686" d="M21.815 46.415h2.802l-.806-4.767h-1.19z"/><path fill="#EE5253" d="m23.776 40.44-.562-.4h-.002l-1.126.8.532.801h1.127l-.437-.658a.18.18 0 0 1 .045-.243z"/><path fill="#FF6B6B" d="m22.621 41.648-.806 4.767h1.126l.807-4.767z"/><path fill="#54A0FF" d="M29.896 21.403a.617.617 0 0 1 .617-.617h2.988v-1.583a.617.617 0 0 0-.617-.617h-7.197a.617.617 0 0 0-.617.617v5.32a.617.617 0 0 0 .617.617h.734a.15.15 0 0 1 .143.117.2.2 0 0 1-.002.067c-.106.388-.3.854-.656 1.306-.157.2.035.482.278.407.754-.235 1.805-.74 2.335-1.801a.17.17 0 0 1 .152-.096h1.225z"/><path fill="#338DEF" d="M27.9 25.324a.146.146 0 0 0-.141-.184h-.734a.617.617 0 0 1-.617-.617v-5.32c0-.34.276-.617.617-.617H25.69a.617.617 0 0 0-.617.617v5.32c0 .34.276.617.617.617h.733a.146.146 0 0 1 .141.184c-.105.388-.3.854-.655 1.307-.158.2.035.481.277.406a4.8 4.8 0 0 0 1.147-.523 3.7 3.7 0 0 0 .568-1.19m-8.843 21.088v-3.683a.502.502 0 0 0-1.002 0v3.683zm9.39 0v-3.683a.501.501 0 0 0-1.002 0v3.683z"/><path fill="#1DD1A1" d="M30.312 20.586h7.197a.617.617 0 0 1 .617.617v5.32a.617.617 0 0 1-.617.617h-.733a.146.146 0 0 0-.141.184c.105.388.3.854.655 1.306a.258.258 0 0 1-.278.407c-.754-.235-1.804-.74-2.334-1.801a.17.17 0 0 0-.152-.096h-4.214a.617.617 0 0 1-.617-.617v-5.32c0-.34.277-.617.617-.617"/><path fill="#15BA8B" d="M31.032 26.523v-5.32a.617.617 0 0 1 .617-.617h-1.337a.617.617 0 0 0-.617.617v5.32a.617.617 0 0 0 .617.617h1.337a.617.617 0 0 1-.617-.617m6.171 1.991c-.462-.294-.902-.704-1.188-1.278a.17.17 0 0 0-.153-.096h-1.336a.17.17 0 0 1 .152.096c.53 1.06 1.58 1.566 2.334 1.801a.257.257 0 0 0 .278-.406z"/><path fill="#15BA8B" d="M35.893 25.919h-3.964a.501.501 0 0 1 0-1.003h3.964a.502.502 0 0 1 0 1.003m0-1.552h-3.964a.501.501 0 0 1 0-1.003h3.964a.501.501 0 0 1 0 1.003m0-1.552h-3.964a.502.502 0 0 1 0-1.003h3.964a.502.502 0 0 1 0 1.003"/><path fill="#576574" d="M41.75 27.484a3.8 3.8 0 0 0-3.799 3.8v1.504c.254-.236.615-.364.968-.316v-.19c0-.15.129-.27.278-.258 1.469.106 2.964-.361 4.094-1.1a.26.26 0 0 1 .331.04c.967 1.04.96 1 .96 1.135v.372c.387-.058.73.061.969.283v-1.47a3.8 3.8 0 0 0-3.8-3.8"/><path fill="#3E4B5A" d="M38.971 31.284a3.8 3.8 0 0 1 3.29-3.765 3.8 3.8 0 0 0-4.31 3.765v1.504c.254-.236.615-.364.968-.316 0-.198-.012-.26.052-.345z"/><path fill="#FFBEAB" d="M44.531 32.32v2.08l-.002.068c.737.112 1.314-.42 1.314-1.074s-.577-1.185-1.312-1.075m-5.563 2.08v-2.08c-.641-.086-1.312.407-1.312 1.074 0 .653.576 1.186 1.314 1.074z"/><path fill="#F7AF9F" d="M45.453 32.562a1.16 1.16 0 0 0-.922-.243v2.082l-.002.067c.364.055.688-.047.924-.242zm-6.485 1.664a1.08 1.08 0 0 1-.39-.832c0-.322.156-.603.39-.799v-.275c-.641-.086-1.312.407-1.312 1.074 0 .653.576 1.186 1.314 1.074l-.002-.067z"/><path fill="#FFBEAB" d="M41.79 37.149a2.93 2.93 0 0 1-1.595-.45v1.49l1.588 1.96 1.588-1.96v-1.533a2.8 2.8 0 0 1-1.581.493"/><path fill="#F7AF9F" d="M41.212 37.093a2.9 2.9 0 0 1-1.017-.398v1.492l1.017 1.255z"/><path fill="#54A0FF" d="m47.57 39.713-4.2-1.627-1.587 1.96-1.588-1.96-4.196 1.627s-1.554.638-1.554 2.41v3.93a.36.36 0 0 0 .362.361h13.959a.36.36 0 0 0 .358-.358v-3.934c0-1.77-1.554-2.41-1.554-2.41"/><path fill="#338DEF" d="M35.466 46.054v-4.388c0-1.215.731-1.897 1.19-2.205l-.653.253s-1.554.639-1.554 2.41v3.93a.36.36 0 0 0 .362.362h1.017a.36.36 0 0 1-.362-.362"/><path fill="#FFCDBF" d="M43.623 30.864a.26.26 0 0 0-.33-.04c-1.131.738-2.626 1.205-4.096 1.1a.26.26 0 0 0-.277.257v2.27c0 1.46 1.143 2.792 2.872 2.792a2.795 2.795 0 0 0 2.792-2.792v-2.453c0-.136.006-.095-.96-1.134"/><path fill="#FFBEAB" d="M39.937 34.45v-2.522a6 6 0 0 1-.74-.005.26.26 0 0 0-.277.258v2.27c0 1.459 1.143 2.791 2.872 2.791q.24 0 .468-.04a2.796 2.796 0 0 1-2.323-2.751"/><path fill="#338DEF" d="m43.7 41.053 1.188-2.38-1.517-.587-1.588 1.96 1.548 1.1a.25.25 0 0 0 .37-.093"/><path fill="#338DEF" d="m39.869 41.053-1.187-2.38 1.516-.587 1.588 1.96-1.548 1.1a.25.25 0 0 1-.37-.093"/><path fill="#FF6B6B" d="m41.788 40.04-1.126.8.532.801h1.19l.532-.8z"/><path fill="#FC8686" d="M40.385 46.415h2.803l-.807-4.767h-1.19z"/><path fill="#EE5253" d="m42.35 40.44-.562-.4h-.002l-1.126.8.532.801h1.127l-.437-.658a.18.18 0 0 1 .045-.243z"/><path fill="#FF6B6B" d="m41.192 41.648-.807 4.767h1.127l.806-4.767z"/><path fill="#338DEF" d="M37.626 46.41v-3.682a.501.501 0 0 0-1.003 0v3.683zm9.39 0v-3.682a.502.502 0 0 0-1.002 0v3.683z"/></svg>