<svg xmlns="http://www.w3.org/2000/svg" width="81" height="81" fill="none"><circle cx="40.5" cy="40.5" r="40" stroke="#737588" stroke-dasharray="2 5"/><g fill="#50AF9B" clip-path="url(#a)"><path d="M33.667 41.005A7.333 7.333 0 1 0 41 33.672a7.35 7.35 0 0 0-7.333 7.333m3.219-4.355 1.333 4.386-3.004-1.6a6 6 0 0 1 1.67-2.786M47 41.005c0 .058-.007.114-.008.171l-4.048-2.159 3.256-.99c.524.905.8 1.932.8 2.978m-12 0c0-.058.008-.114.009-.171l4.047 2.16-3.256.99a5.96 5.96 0 0 1-.8-2.979m7.334 0a1.333 1.333 0 1 1-2.667 0 1.333 1.333 0 0 1 2.667 0m-5.689 4.115 4.387-1.334-1.6 3.005a6 6 0 0 1-2.787-1.671m4.184 1.877 2.159-4.047.99 3.255c-.905.524-1.932.8-2.978.8-.058 0-.114-.007-.171-.009m4.286-1.636-1.333-4.386 3.004 1.6a6 6 0 0 1-1.671 2.785m.24-8.47-4.386 1.333 1.6-3.004c1.065.29 2.03.868 2.787 1.67m-4.183-1.877-2.159 4.046-.99-3.255a5.95 5.95 0 0 1 2.977-.8c.058 0 .114.008.172.009"/><path d="M50.334 30.336h5.428a2.666 2.666 0 1 0 0-1.334h-5.428a2 2 0 0 0-2 2v.009a18 18 0 0 0-2.667-.827v-3.849a.666.666 0 0 1 .667-.666h2.094a2.666 2.666 0 1 0 0-1.334h-2.094a2 2 0 0 0-2 2v3.59a21 21 0 0 0-2.667-.239v-3.445a2.666 2.666 0 1 0-1.333 0v3.445a21 21 0 0 0-2.667.24v-3.59a2 2 0 0 0-2-2h-2.095a2.666 2.666 0 1 0 0 1.333h2.095a.667.667 0 0 1 .667.666v3.85q-1.366.31-2.667.826v-.009a2 2 0 0 0-2-2h-5.428a2.667 2.667 0 1 0 0 1.334h5.428a.666.666 0 0 1 .667.666v.61a18.62 18.62 0 0 0-8.626 9.16.66.66 0 0 0 0 .46 18.62 18.62 0 0 0 8.626 9.16v.61a.667.667 0 0 1-.667.667h-5.428a2.667 2.667 0 1 0 0 1.333h5.428a2 2 0 0 0 2-2v-.009q1.302.516 2.667.827v3.849a.667.667 0 0 1-.667.667h-2.095a2.666 2.666 0 1 0 0 1.333h2.095a2 2 0 0 0 2-2v-3.59q1.325.204 2.667.24v3.444a2.667 2.667 0 1 0 1.333 0v-3.445a21 21 0 0 0 2.667-.24v3.59a2 2 0 0 0 2 2h2.094a2.666 2.666 0 1 0 0-1.332h-2.094a.666.666 0 0 1-.667-.667V51.82q1.365-.31 2.667-.827v.01a2 2 0 0 0 2 2h5.428a2.666 2.666 0 1 0 0-1.334h-5.428a.667.667 0 0 1-.667-.667v-.61a18.62 18.62 0 0 0 8.626-9.16.66.66 0 0 0 0-.46 18.62 18.62 0 0 0-8.626-9.16v-.61a.666.666 0 0 1 .667-.666m8-2a1.334 1.334 0 1 1 0 2.667 1.334 1.334 0 0 1 0-2.668M51 23.669a1.333 1.333 0 1 1 0 2.666 1.333 1.333 0 0 1 0-2.666m-20 2.666a1.334 1.334 0 1 1 0-2.667 1.334 1.334 0 0 1 0 2.668m-7.333 4.667a1.333 1.333 0 1 1 0-2.667 1.333 1.333 0 0 1 0 2.667m0 22.667a1.333 1.333 0 1 1 0-2.666 1.333 1.333 0 0 1 0 2.666M31 58.336a1.334 1.334 0 1 1 0-2.668 1.334 1.334 0 0 1 0 2.668m20-2.667a1.333 1.333 0 1 1 0 2.666 1.333 1.333 0 0 1 0-2.666m7.334-4.667a1.334 1.334 0 1 1 0 2.667 1.334 1.334 0 0 1 0-2.667m-7.334-10c0 5.523-4.477 10-10 10s-10-4.477-10-10 4.478-10 10-10c5.52.007 9.994 4.48 10 10M39.667 23.67a1.334 1.334 0 1 1 2.667 0 1.334 1.334 0 0 1-2.667 0M25.05 41.002a16.7 16.7 0 0 1 8.504-8.523 11.288 11.288 0 0 0 0 17.047 16.7 16.7 0 0 1-8.504-8.524m17.283 17.334a1.333 1.333 0 1 1-2.667 0 1.333 1.333 0 0 1 2.667 0M56.95 41.002a16.7 16.7 0 0 1-8.504 8.523 11.286 11.286 0 0 0 0-17.046 16.7 16.7 0 0 1 8.504 8.523"/></g><defs><clipPath id="a"><path fill="#fff" d="M21 21h40v40H21z"/></clipPath></defs></svg>