<svg xmlns="http://www.w3.org/2000/svg" width="81" height="81" fill="none"><circle cx="40.5" cy="40.5" r="40" stroke="#737588" stroke-dasharray="2 5"/><g fill="#50AF9B" clip-path="url(#a)"><path d="M59 32.333a2 2 0 1 0 0-4h-2v-.666A2.667 2.667 0 0 0 54.333 25h-.666v-2a2 2 0 1 0-4 0v2h-1.334v-2a2 2 0 0 0-4 0v2H43v-2a2 2 0 1 0-4 0v2h-1.333v-2a2 2 0 0 0-4 0v2h-1.334v-2a2 2 0 1 0-4 0v2h-.666A2.667 2.667 0 0 0 25 27.667v.666h-2a2 2 0 0 0 0 4h2v1.334h-2a2 2 0 1 0 0 4h2V39h-2a2 2 0 0 0 0 4h2v1.333h-2a2 2 0 1 0 0 4h2v1.334h-2a2 2 0 1 0 0 4h2v.666A2.667 2.667 0 0 0 27.667 57h.666v2a2 2 0 0 0 4 0v-2h1.334v2a2 2 0 0 0 4 0v-2H39v2a2 2 0 0 0 4 0v-2h1.333v2a2 2 0 0 0 4 0v-2h1.334v2a2 2 0 0 0 4 0v-2h.666A2.667 2.667 0 0 0 57 54.333v-.666h2a2 2 0 1 0 0-4h-2v-1.334h2a2 2 0 1 0 0-4h-2V43h2a2 2 0 1 0 0-4h-2v-1.333h2a2 2 0 1 0 0-4h-2v-1.334zm0-2.666A.667.667 0 0 1 59 31h-2v-1.333zM51 23a.667.667 0 0 1 1.333 0v2H51zm-5.333 0A.667.667 0 0 1 47 23v2h-1.333zm-5.334 0a.667.667 0 1 1 1.334 0v2h-1.334zM35 23a.667.667 0 0 1 1.333 0v2H35zm-5.333 0A.667.667 0 0 1 31 23v2h-1.333zM23 31a.667.667 0 0 1 0-1.333h2V31zm0 5.333A.667.667 0 1 1 23 35h2v1.333zm0 5.334a.667.667 0 0 1 0-1.334h2v1.334zM23 47a.667.667 0 0 1 0-1.333h2V47zm0 5.333A.667.667 0 0 1 23 51h2v1.333zM31 59a.667.667 0 0 1-1.333 0v-2H31zm5.333 0A.667.667 0 1 1 35 59v-2h1.333zm5.334 0a.667.667 0 0 1-1.334 0v-2h1.334zM47 59a.667.667 0 0 1-1.333 0v-2H47zm5.333 0A.667.667 0 0 1 51 59v-2h1.333zm3.334-4.667c0 .737-.597 1.334-1.334 1.334H27.667a1.333 1.333 0 0 1-1.334-1.334V27.667c0-.737.597-1.334 1.334-1.334h26.666c.737 0 1.334.597 1.334 1.334zM59 51a.667.667 0 0 1 0 1.333h-2V51zm0-5.333A.667.667 0 0 1 59 47h-2v-1.333zm0-5.334a.667.667 0 1 1 0 1.334h-2v-1.334zM59 35a.667.667 0 0 1 0 1.333h-2V35z"/><path d="M28.941 32.997a1.27 1.27 0 0 0 .903-.374l2.781-2.782a1.274 1.274 0 0 0-.896-2.177h-2.788c-.703 0-1.273.57-1.274 1.274v2.787a1.275 1.275 0 0 0 1.274 1.272m2.74-4.099.472.472zm-2.68.1h2.583L29 31.627z"/><path fill-rule="evenodd" d="M43.134 41.267a2.666 2.666 0 0 1-4.267 0 .666.666 0 1 0-1.067.8 4 4 0 0 0 6.4 0 .667.667 0 0 0-1.066-.8" clip-rule="evenodd"/><path d="M36 36.336a2.333 2.333 0 1 0 0 4.667 2.333 2.333 0 0 0 0-4.667m0 3.333a1 1 0 1 1 0-2 1 1 0 0 1 0 2m10-3.333a2.333 2.333 0 1 0 0 4.667 2.333 2.333 0 0 0 0-4.667m0 3.333a1 1 0 1 1 0-2 1 1 0 0 1 0 2"/><path d="m52.933 36.89-1.974-.987a2.67 2.67 0 0 0-2.626-2.233h-6.667v-1.456a2 2 0 1 0-1.333 0v1.456h-6.667a2.67 2.67 0 0 0-2.622 2.233l-1.974.986a1.33 1.33 0 0 0-.737 1.193v3.843a1.33 1.33 0 0 0 .737 1.192l1.974.987a2.67 2.67 0 0 0 2.622 2.233h4v1.333H37a2.667 2.667 0 0 0-2.667 2.666v.667c0 .737.597 1.334 1.333 1.334h10.667c.736 0 1.333-.597 1.333-1.334v-.666A2.667 2.667 0 0 0 45 47.67h-.667v-1.334h4a2.67 2.67 0 0 0 2.623-2.232l1.974-.987a1.33 1.33 0 0 0 .736-1.192v-3.843a1.33 1.33 0 0 0-.733-1.193M41 29.67a.667.667 0 1 1 0 1.333.667.667 0 0 1 0-1.333m-11.334 8.412L31 37.415v5.176l-1.334-.666zm16.667 12.255v.666H35.666v-.666c0-.737.597-1.334 1.334-1.334h8c.736 0 1.333.597 1.333 1.334M43 47.67h-4v-1.334h4zm6.666-4c0 .736-.597 1.333-1.333 1.333H33.666a1.333 1.333 0 0 1-1.333-1.333v-7.334c0-.736.597-1.333 1.333-1.333h14.667c.736 0 1.333.597 1.333 1.334zm2.667-1.745L51 42.59v-5.176l1.333.667z"/></g><defs><clipPath id="a"><path fill="#fff" d="M21 21h40v40H21z"/></clipPath></defs></svg>