<svg xmlns="http://www.w3.org/2000/svg" width="81" height="81" fill="none"><circle cx="40.5" cy="40.5" r="40" stroke="#737588" stroke-dasharray="2 5"/><g fill="#50AF9B" clip-path="url(#a)"><path d="M41.005 38.336A8.665 8.665 0 1 0 49.67 47a8.675 8.675 0 0 0-8.665-8.665m0 15.996A7.332 7.332 0 1 1 48.337 47a7.34 7.34 0 0 1-7.332 7.332"/><path d="M41.005 42.336a4.666 4.666 0 1 0 0 9.331 4.666 4.666 0 0 0 0-9.331m0 7.998a3.332 3.332 0 1 1 0-6.665 3.332 3.332 0 0 1 0 6.665"/><path d="M58.334 29.675a2.666 2.666 0 0 0-2.571 1.999h-5.427a2 2 0 0 0-2 2v2.316l-1.243.369-1.422-.589v-7.429c0-.368.298-.666.666-.666h2.094a2.666 2.666 0 1 0 0-1.333h-2.094a2 2 0 0 0-2 2v6.877l-.084-.036-.733-1.347a1.58 1.58 0 0 0-1.392-.829h-.456v-6.76a2.666 2.666 0 1 0-1.333 0v6.76h-.434a1.59 1.59 0 0 0-1.394.83l-.733 1.346-.105.045V28.34a2 2 0 0 0-2-1.999H33.58a2.666 2.666 0 1 0 0 1.333h2.094c.368 0 .666.298.666.666v7.439l-1.4.579-1.266-.376v-2.31a2 2 0 0 0-1.999-1.999h-5.427a2.666 2.666 0 1 0 0 1.333h5.427c.368 0 .666.298.666.666v2.348a1.6 1.6 0 0 0-.443.3l-1.571 1.57a1.58 1.58 0 0 0-.4 1.573l.436 1.466-1.175 2.837-1.349.733a1.58 1.58 0 0 0-.83 1.393v2.22a1.58 1.58 0 0 0 .83 1.395l1.35.733 1.175 2.836-.437 1.467a1.58 1.58 0 0 0 .4 1.572l1.571 1.57a1.58 1.58 0 0 0 1.573.4l1.47-.437 2.84 1.176.733 1.347a1.59 1.59 0 0 0 1.392.828h2.223a1.58 1.58 0 0 0 1.394-.83l.733-1.346 2.84-1.176 1.47.437a1.58 1.58 0 0 0 1.572-.4l1.573-1.57a1.59 1.59 0 0 0 .4-1.572l-.441-1.468 1.176-2.837 1.349-.733a1.59 1.59 0 0 0 .83-1.394v-2.218a1.58 1.58 0 0 0-.83-1.394l-1.349-.733-1.176-2.834.437-1.466a1.59 1.59 0 0 0-.4-1.572l-1.57-1.572a1.6 1.6 0 0 0-.467-.31v-2.338c0-.369.299-.667.667-.667h5.427a2.661 2.661 0 1 0 2.571-3.332m-7.332-4a1.333 1.333 0 1 1 0 2.666 1.333 1.333 0 0 1 0-2.666m-11.33-1.999a1.333 1.333 0 1 1 2.666 0 1.333 1.333 0 0 1-2.666 0m-8.664 4.666a1.333 1.333 0 1 1 0-2.667 1.333 1.333 0 0 1 0 2.666m-7.332 5.331a1.333 1.333 0 1 1 0-2.665 1.333 1.333 0 0 1 0 2.665m27.09 5.161a.25.25 0 0 1 .063.25l-.504 1.696a.67.67 0 0 0 .023.444l1.357 3.273a.67.67 0 0 0 .298.334l1.556.84a.25.25 0 0 1 .134.22v2.221a.25.25 0 0 1-.134.222l-1.557.844a.67.67 0 0 0-.298.333l-1.357 3.274a.67.67 0 0 0-.023.444l.504 1.695a.25.25 0 0 1-.063.25l-1.572 1.57a.26.26 0 0 1-.251.064l-1.697-.503a.66.66 0 0 0-.445.023l-3.275 1.356a.67.67 0 0 0-.334.298l-.84 1.552a.26.26 0 0 1-.223.133h-2.223a.25.25 0 0 1-.222-.133l-.844-1.554a.67.67 0 0 0-.333-.298l-3.276-1.356a.67.67 0 0 0-.445-.023l-1.696.503a.25.25 0 0 1-.251-.066l-1.572-1.57a.25.25 0 0 1-.066-.25l.503-1.696a.67.67 0 0 0-.022-.444l-1.353-3.27a.67.67 0 0 0-.298-.334l-1.555-.84a.25.25 0 0 1-.133-.22v-2.223a.25.25 0 0 1 .133-.223l1.556-.843a.67.67 0 0 0 .298-.333l1.357-3.273a.67.67 0 0 0 .023-.445l-.501-1.692a.25.25 0 0 1 .066-.25l1.572-1.57a.25.25 0 0 1 .25-.063l1.697.503a.66.66 0 0 0 .445-.024l2.027-.838.012-.005 1.237-.512a.67.67 0 0 0 .333-.298l.836-1.554a.25.25 0 0 1 .222-.133h2.223a.25.25 0 0 1 .223.133l.843 1.555c.073.135.191.24.333.298l3.276 1.355a.66.66 0 0 0 .445.023l1.696-.503a.25.25 0 0 1 .252.066zm7.568-5.16a1.333 1.333 0 1 1 0-2.666 1.333 1.333 0 0 1 0 2.665"/></g><defs><clipPath id="a"><path fill="#fff" d="M21 21h40v40H21z"/></clipPath></defs></svg>