<svg xmlns="http://www.w3.org/2000/svg" width="81" height="81" fill="none"><circle cx="40.5" cy="40.5" r="40" stroke="#737588" stroke-dasharray="2 5"/><g fill="#50AF9B" clip-path="url(#a)"><path d="M59.477 45.043a7 7 0 0 0 1.508-3.934 7.13 7.13 0 0 0-.985-4.12 4.54 4.54 0 0 0-.174-3.795 4.2 4.2 0 0 0-1.23-1.44 3.8 3.8 0 0 0-1.699-.703c-.316-2.193-1.352-4.195-2.922-5.644-1.57-1.45-3.57-2.252-5.642-2.264-.168 0-.349.02-.523.032a4.2 4.2 0 0 0-1.27-1.464 3.8 3.8 0 0 0-1.754-.684 3.74 3.74 0 0 0-1.851.246 4 4 0 0 0-1.544 1.122A6.67 6.67 0 0 0 37.333 21a6.7 6.7 0 0 0-3.201.844 7.2 7.2 0 0 0-2.493 2.312 4.7 4.7 0 0 0-2.322-.25 4.8 4.8 0 0 0-2.174.91 5.25 5.25 0 0 0-1.55 1.87 5.65 5.65 0 0 0-.588 2.419 4.05 4.05 0 0 0-1.934 1.564 4.5 4.5 0 0 0-.738 2.474q.008.525.134 1.033A9.26 9.26 0 0 0 21 39.214a9.45 9.45 0 0 0 .87 3.98 8.8 8.8 0 0 0 2.436 3.145 8.06 8.06 0 0 0 3.49 1.652 7.8 7.8 0 0 0 3.81-.189 6.7 6.7 0 0 0 1.882 2.516 6.1 6.1 0 0 0 2.756 1.297 5.9 5.9 0 0 0 3.003-.218 6.25 6.25 0 0 0 2.567-1.683 9.3 9.3 0 0 0 2.533.541c.124 2.672 1.082 4.273 5.106 5.71 2.613.933 3.31 2.827 3.493 3.873.06.329.225.625.468.837.242.213.546.328.859.325h2.034a1.3 1.3 0 0 0 .972-.447 1.5 1.5 0 0 0 .362-1.064c-.098-1.715-.542-5.684-2.474-8.205a8.8 8.8 0 0 0 2.797-2.612 9.6 9.6 0 0 0 1.513-3.63m-7.266 5.843a.66.66 0 0 0-.422.292c-.1.152-.14.34-.113.524a.72.72 0 0 0 .26.46c.14.11.314.16.486.134a8 8 0 0 0 1.47-.404c1.895 2.133 2.322 6.044 2.417 7.68H54.26c-.191-1.09-1-3.758-4.382-4.966-3.438-1.227-4.098-2.343-4.194-4.351h.035a9.3 9.3 0 0 0 2.223-.44.68.68 0 0 0 .393-.348.76.76 0 0 0 .048-.544.7.7 0 0 0-.325-.422.63.63 0 0 0-.508-.052 8 8 0 0 1-1.938.382 7.9 7.9 0 0 1-3.744-.605.58.58 0 0 0-.405-.04.62.62 0 0 0-.34.24 4.97 4.97 0 0 1-2.471 1.671 4.7 4.7 0 0 1-2.921-.093 5.03 5.03 0 0 1-2.373-1.826 5.6 5.6 0 0 1-1.016-2.936.74.74 0 0 0-.227-.482.64.64 0 0 0-.478-.174.65.65 0 0 0-.455.233.75.75 0 0 0-.173.507q.037.57.163 1.125a6.55 6.55 0 0 1-3.183.122 6.8 6.8 0 0 1-2.905-1.401 7.4 7.4 0 0 1-2.025-2.635 7.95 7.95 0 0 1-.727-3.323 7.8 7.8 0 0 1 .814-3.5c.306.443.69.818 1.129 1.105a.64.64 0 0 0 .505.08.7.7 0 0 0 .235-.118.7.7 0 0 0 .175-.207.75.75 0 0 0 .075-.54.7.7 0 0 0-.111-.252.7.7 0 0 0-.193-.188 2.83 2.83 0 0 1-1.15-1.522 3.05 3.05 0 0 1 .035-1.957 2.8 2.8 0 0 1 1.203-1.474 2.5 2.5 0 0 1 1.807-.298.63.63 0 0 0 .495-.111.72.72 0 0 0 .28-.451.76.76 0 0 0-.097-.532.67.67 0 0 0-.417-.307 4 4 0 0 0-.768-.085 4.04 4.04 0 0 1 1.18-2.543A3.54 3.54 0 0 1 30 25.287c.322.002.643.05.953.143q-.24.563-.393 1.163a.76.76 0 0 0 .07.542.7.7 0 0 0 .173.209q.106.085.234.121a.63.63 0 0 0 .505-.074.7.7 0 0 0 .195-.186.7.7 0 0 0 .114-.25 6.2 6.2 0 0 1 1.307-2.563 5.66 5.66 0 0 1 2.272-1.612c.869-.33 1.8-.43 2.712-.289s1.78.52 2.525 1.101a4.5 4.5 0 0 0-.254.838.76.76 0 0 0 .097.536c.098.159.25.269.423.306a.63.63 0 0 0 .501-.104.72.72 0 0 0 .286-.453c.132-.694.5-1.311 1.032-1.731a2.54 2.54 0 0 1 1.85-.543 2.6 2.6 0 0 1 1.71.928c.444.526.689 1.21.688 1.918 0 .19.07.37.195.505a.65.65 0 0 0 .472.209.65.65 0 0 0 .471-.21.74.74 0 0 0 .195-.504 4.6 4.6 0 0 0-.059-.715h.06c1.724.01 3.39.666 4.71 1.856s2.209 2.836 2.513 4.654q-.365.078-.71.226a.7.7 0 0 0-.349.384.76.76 0 0 0-.002.537.7.7 0 0 0 .348.386.63.63 0 0 0 .5.018 2.5 2.5 0 0 1 1.999.023 2.77 2.77 0 0 1 1.422 1.505c.274.68.29 1.447.047 2.14a2.8 2.8 0 0 1-1.355 1.575.7.7 0 0 0-.21.165.76.76 0 0 0-.111.785q.057.129.155.224a.7.7 0 0 0 .223.145.63.63 0 0 0 .51-.025 4 4 0 0 0 1.133-.865 5.6 5.6 0 0 1 .51 2.339 5.63 5.63 0 0 1-.998 3.21 5.02 5.02 0 0 1-2.592 1.933.68.68 0 0 0-.397.344.76.76 0 0 0-.054.543c.05.182.166.335.321.425.156.09.338.111.508.058q.571-.19 1.099-.49a7.7 7.7 0 0 1-2.197 2.802 7 7 0 0 1-3.148 1.418z"/><path d="M55.657 35.141a1.5 1.5 0 0 0-.18-.71 1.4 1.4 0 0 0-.487-.521l-.814-.5-1.11-2.047-.005-1.012a1.5 1.5 0 0 0-.182-.71 1.4 1.4 0 0 0-.488-.52l-1.445-.888a1.26 1.26 0 0 0-.667-.189 1.27 1.27 0 0 0-.666.195l-.81.506-2.194.01-.814-.5a1.27 1.27 0 0 0-1.333.008l-1.438.901c-.2.127-.367.308-.482.525a1.5 1.5 0 0 0-.176.712v1.012l-.7 1.315a2 2 0 0 0-.066-.166l-.84-1.538a1.4 1.4 0 0 0-.489-.518 1.27 1.27 0 0 0-.663-.19h-.004l-.938.004-1.914-1.169-.48-.867a1.35 1.35 0 0 0-.487-.523 1.23 1.23 0 0 0-.67-.183l-1.67.009a1.27 1.27 0 0 0-.665.193c-.202.125-.37.305-.487.521l-.467.872-1.906 1.188-.945.006a1.27 1.27 0 0 0-.663.194c-.202.125-.37.304-.486.52L27 32.631a1.5 1.5 0 0 0 .005 1.429l.47.867.01 2.357-.466.872a1.51 1.51 0 0 0 .007 1.432l.84 1.536c.117.216.285.394.487.518.202.125.431.19.664.19h.949L31.88 43l.477.87c.118.213.286.39.488.513s.43.187.662.187h.007l1.674-.008a1.27 1.27 0 0 0 .663-.193 1.4 1.4 0 0 0 .486-.521l.467-.873 1.906-1.19.945-.007c.233-.002.462-.069.664-.195s.37-.306.486-.523l.827-1.546c.016-.03.022-.062.036-.092l.737 1.357.005 1.013c.002.25.064.495.182.711s.286.395.488.52l1.444.887c.414.253.922.25 1.334-.006l.809-.506 2.194-.01.815.5a1.26 1.26 0 0 0 1.333-.008l1.435-.9c.202-.127.369-.308.484-.525.116-.217.177-.463.176-.713V40.73l1.09-2.052.81-.51c.202-.126.37-.307.486-.524.116-.216.176-.462.176-.712zm-16.009 5.215-1.122.006a.63.63 0 0 0-.334.096l-2.212 1.379a.7.7 0 0 0-.244.261l-.557 1.038-1.67.005-.567-1.033a.7.7 0 0 0-.245-.26l-2.224-1.357a.63.63 0 0 0-.333-.093h-1.123l-.84-1.538.554-1.038a.76.76 0 0 0 .087-.357l-.011-2.735a.75.75 0 0 0-.09-.357l-.563-1.034.828-1.546 1.122-.007a.63.63 0 0 0 .333-.096l2.213-1.378a.7.7 0 0 0 .243-.262l.557-1.037 1.673-.008.566 1.033a.7.7 0 0 0 .245.259l2.224 1.357q.157.09.334.094l1.122-.005.838 1.541-.554 1.038a.76.76 0 0 0-.088.357v.489c0 .015-.005.03-.005.046l.007 1.791c0 .016.006.031.006.048v.357c0 .126.032.248.092.357l.562 1.033zm13.719-2.807a.7.7 0 0 0-.243.263l-1.267 2.383a.76.76 0 0 0-.087.357v1.203l-1.436.901-.968-.594a.64.64 0 0 0-.334-.094h-.003l-2.552.012a.63.63 0 0 0-.333.098l-.964.603-1.436-.897-.007-1.203a.75.75 0 0 0-.09-.358l-1.286-2.367a.7.7 0 0 0-.243-.261L41.154 37l-.008-1.799.958-.603a.7.7 0 0 0 .243-.262l1.267-2.384a.8.8 0 0 0 .087-.357l-.004-1.203 1.436-.895.969.594c.1.066.216.1.333.094l2.552-.012a.63.63 0 0 0 .334-.098l.964-.603 1.443.883.006 1.202c0 .126.032.249.09.358l1.287 2.37a.7.7 0 0 0 .244.261l.969.596.009 1.794z"/><path d="M49.867 32.068a4.1 4.1 0 0 0-1.59-.57 4 4 0 0 0-1.674.126 4.2 4.2 0 0 0-1.5.804 4.5 4.5 0 0 0-1.097 1.36 4.92 4.92 0 0 0-.412 3.502c.3 1.18 1.023 2.185 2.012 2.796a4.1 4.1 0 0 0 1.587.574c.56.076 1.128.033 1.672-.127a4.2 4.2 0 0 0 1.504-.803 4.5 4.5 0 0 0 1.098-1.363 4.92 4.92 0 0 0 .411-3.503c-.3-1.18-1.023-2.185-2.011-2.796m.439 5.59a3.1 3.1 0 0 1-.756.938 2.9 2.9 0 0 1-1.034.555c-.375.11-.767.14-1.153.087a2.8 2.8 0 0 1-1.096-.393 3.18 3.18 0 0 1-1.389-1.932 3.4 3.4 0 0 1 .286-2.42 3.1 3.1 0 0 1 .755-.938 2.9 2.9 0 0 1 1.035-.556c.375-.11.768-.14 1.154-.087s.759.187 1.097.395a3.18 3.18 0 0 1 1.388 1.932 3.4 3.4 0 0 1-.285 2.42zM36.453 32.08a4.07 4.07 0 0 0-3.27-.442c-1.1.321-2.038 1.096-2.608 2.156a4.8 4.8 0 0 0-.533 1.704c-.071.6-.031 1.209.118 1.792a4.7 4.7 0 0 0 .75 1.607c.347.478.778.877 1.269 1.176.49.309 1.032.51 1.596.592a4 4 0 0 0 1.685-.112 4.2 4.2 0 0 0 1.515-.8c.45-.37.828-.834 1.111-1.362a4.8 4.8 0 0 0 .535-1.717 4.9 4.9 0 0 0-.123-1.804 4.7 4.7 0 0 0-.762-1.615 4.4 4.4 0 0 0-1.283-1.175m.447 5.57a3.03 3.03 0 0 1-1.804 1.488 2.8 2.8 0 0 1-2.257-.306 3 3 0 0 1-.875-.811 3.3 3.3 0 0 1-.518-1.108 3.4 3.4 0 0 1-.08-1.236 3.3 3.3 0 0 1 .367-1.175 3.02 3.02 0 0 1 1.804-1.488 2.8 2.8 0 0 1 2.258.307c.338.206.636.481.875.81.24.33.415.706.518 1.108s.13.823.082 1.237c-.05.414-.175.813-.368 1.175z"/></g><defs><clipPath id="a"><path fill="#fff" d="M21 21h40v40H21z"/></clipPath></defs></svg>