<svg xmlns="http://www.w3.org/2000/svg" width="52" height="52" fill="none"><path fill="#fff" d="M35.893 47.667h.06c1.145 0 2.226-.45 3.045-1.27l5.876-5.876a2.164 2.164 0 0 0 0-3.063l-8.667-8.667a2.164 2.164 0 0 0-3.063 0l-3.454 3.454c-1.601-.477-4.589-1.56-6.483-3.454s-2.977-4.881-3.453-6.483l3.453-3.453a2.164 2.164 0 0 0 0-3.064l-8.666-8.667c-.813-.812-2.251-.812-3.064 0L5.603 13a4.33 4.33 0 0 0-1.27 3.11c.05 3.085.867 13.801 9.313 22.247s19.162 9.26 22.247 9.31M13.011 11.72l5.603 5.603-2.802 2.801a2.16 2.16 0 0 0-.587 1.976c.052.25 1.324 6.158 4.92 9.755 3.598 3.596 9.506 4.868 9.755 4.92.722.152 1.46-.07 1.976-.587l2.802-2.801 5.603 5.603-4.347 4.344c-2.704-.046-11.955-.772-19.224-8.043-7.294-7.293-8-16.577-8.043-19.227zm30.32 12.114h4.334c0-11.115-8.392-19.498-19.522-19.498v4.333c8.801 0 15.188 6.377 15.188 15.165"/><path fill="#fff" d="M28.164 17.333c4.557 0 6.5 1.944 6.5 6.5h4.333C38.997 16.846 35.152 13 28.164 13z"/></svg>