<svg xmlns="http://www.w3.org/2000/svg" width="63" height="50" fill="none"><path fill="#101A29" d="M0 10C0 4.477 4.477 0 10 0h20c11.046 0 20 8.954 20 20v8.571C50 40.406 40.406 50 28.571 50 12.791 50 0 37.208 0 21.429z" opacity=".1"/><path fill="#fff" d="M59.41 15.826c1.153 0 2.09.937 2.09 2.09a2.092 2.092 0 0 1-4.045.742h-2.854l-2.23 2.23a.76.76 0 0 1-.528.22h-1.327v3.902h5.68a2.092 2.092 0 0 1 4.045.742 2.092 2.092 0 0 1-4.044.742h-5.68v3.902h1.326c.198 0 .386.08.529.22l2.23 2.23h2.853a2.092 2.092 0 0 1 4.045.742 2.092 2.092 0 0 1-4.045.742h-3.163a.74.74 0 0 1-.526-.217l-2.232-2.232h-1.018v14.255q0 .308-.09.587a1.98 1.98 0 0 1-1.889 1.392H26.966a1.983 1.983 0 0 1-1.98-1.979V31.881H23.97l-2.232 2.232a.74.74 0 0 1-.526.217h-3.163a2.092 2.092 0 0 1-4.045-.742 2.092 2.092 0 0 1 4.045-.742h2.857l2.23-2.23c.139-.14.33-.22.528-.22h1.327v-3.902h-5.687a2.092 2.092 0 0 1-4.045-.742 2.092 2.092 0 0 1 4.045-.742h5.68v-3.903h-1.326a.74.74 0 0 1-.526-.22l-2.23-2.229h-2.856A2.092 2.092 0 0 1 14 17.916a2.092 2.092 0 0 1 4.045-.742h3.163c.198 0 .387.077.526.216l2.232 2.233h1.018V4.233q.001-.205.04-.399c.185-.9.983-1.58 1.939-1.58h21.574c.82 0 1.522.498 1.825 1.209.102.238.154.498.154.77v15.39h1.018l2.232-2.233a.74.74 0 0 1 .526-.216h3.163a2.1 2.1 0 0 1 1.955-1.348m.606 2.09a.607.607 0 0 0-1.212 0 .607.607 0 0 0 1.212 0m0 15.675a.607.607 0 0 0-1.212 0 .607.607 0 0 0 1.212 0m-1.259-7.84a.607.607 0 0 0-1.212 0 .607.607 0 0 0 1.212 0M49.032 46.14v-4.493H26.471v4.493c0 .25.244.495.495.495H48.54a.52.52 0 0 0 .492-.495m0-5.977V8.772H26.471v31.393zm0-32.877V4.233a.52.52 0 0 0-.495-.495H26.966a.527.527 0 0 0-.495.495v3.052zM17.958 25.752a.607.607 0 0 0-1.212 0 .607.607 0 0 0 1.212 0M16.7 17.916a.607.607 0 0 0-1.213 0 .607.607 0 0 0 1.213 0m0 15.675a.607.607 0 0 0-1.213 0 .607.607 0 0 0 1.213 0"/></svg>