<svg xmlns="http://www.w3.org/2000/svg" width="65" height="50" fill="none"><path fill="#101A29" d="M0 10C0 4.477 4.477 0 10 0h20c11.046 0 20 8.954 20 20v8.571C50 40.406 40.406 50 28.571 50 12.791 50 0 37.208 0 21.429z" opacity=".1"/><g fill="#fff" clip-path="url(#a)"><path d="M63.792 43.372c.055.1.083.217.083.33a6.4 6.4 0 0 1-1.884 4.54 6.4 6.4 0 0 1-4.55 1.885H27.61a6.5 6.5 0 0 1-4.592-1.876 6.4 6.4 0 0 1-1.893-4.548.67.67 0 0 1 .668-.676h1.475V20.814c0-.816.662-1.478 1.478-1.478h35.508c.816 0 1.478.662 1.478 1.478v22.213h1.475c.24 0 .465.128.584.345m-41.287.99a5.106 5.106 0 0 0 5.055 4.431h29.883a5.07 5.07 0 0 0 3.604-1.494 5.06 5.06 0 0 0 1.45-2.937h-14.7l-.003.009-.485 2.029a.67.67 0 0 1-.648.512h-8.32a.664.664 0 0 1-.648-.512l-.484-2.03-.003-.008zm37.891-1.335V20.814a.143.143 0 0 0-.142-.142H24.746a.143.143 0 0 0-.142.142v22.213h13.128c.273 0 .423.128.54.314q.103.165.148.353l.45 1.882h7.262l.451-1.882a1.2 1.2 0 0 1 .148-.353c.116-.184.267-.314.54-.314z"/><path d="M50.498 29.298a.668.668 0 0 1-.94.946c-3.892-3.868-10.226-3.874-14.12-.008a.668.668 0 0 1-.94-.946A11.3 11.3 0 0 1 42.493 26h.008c1.47 0 2.9.278 4.255.827a11.3 11.3 0 0 1 3.741 2.471"/><path d="M48.286 32.816a.671.671 0 0 1-.47 1.144.66.66 0 0 1-.47-.195c-2.67-2.655-7.017-2.658-9.69-.005a.668.668 0 0 1-.94-.947 8.16 8.16 0 0 1 5.784-2.38h.005a8.14 8.14 0 0 1 5.78 2.383m-2.216 3.516a.668.668 0 0 1-.941.946 3.74 3.74 0 0 0-5.26-.003.668.668 0 0 1-.941-.946 5.04 5.04 0 0 1 3.568-1.47h.003a5.02 5.02 0 0 1 3.57 1.473m-3.572 2.477a1.094 1.094 0 1 1 0 2.187 1.094 1.094 0 0 1 0-2.187"/></g><defs><clipPath id="a"><path fill="#fff" d="M20 5h45v45H20z"/></clipPath></defs></svg>