<svg xmlns="http://www.w3.org/2000/svg" width="71" height="50" fill="none"><path fill="#101A29" d="M0 10C0 4.477 4.477 0 10 0h20c11.046 0 20 8.954 20 20v8.571C50 40.406 40.406 50 28.571 50 12.791 50 0 37.208 0 21.429z" opacity=".1"/><path fill="#fff" d="M65.873 19.873A5.135 5.135 0 0 1 71 25a5.135 5.135 0 0 1-5.127 5.127 5.1 5.1 0 0 1-3.03-.99L50.136 41.842a5.08 5.08 0 0 1 .99 3.031A5.135 5.135 0 0 1 46 50a5.135 5.135 0 0 1-5.127-5.127 5.1 5.1 0 0 1 .99-3.03L29.158 29.136a5.08 5.08 0 0 1-3.031.99A5.133 5.133 0 0 1 21 25a5.133 5.133 0 0 1 5.127-5.127c1.107 0 2.158.348 3.03.993l12.71-12.708a5.07 5.07 0 0 1-.993-3.031A5.133 5.133 0 0 1 46 0a5.133 5.133 0 0 1 5.127 5.127 5.1 5.1 0 0 1-.99 3.03l12.705 12.709a5.07 5.07 0 0 1 3.031-.993M69.437 25a3.57 3.57 0 0 0-3.564-3.564c-.954 0-1.846.37-2.52 1.044A3.58 3.58 0 0 0 62.31 25a3.54 3.54 0 0 0 1.058 2.533 3.55 3.55 0 0 0 2.506 1.031A3.57 3.57 0 0 0 69.437 25m-7.698-3.03L49.03 9.26a5.1 5.1 0 0 1-2.25.931v9.736a5.1 5.1 0 0 1 2.816 1.416 5.1 5.1 0 0 1 1.458 2.8h9.76a5.15 5.15 0 0 1 .924-2.175M49.03 40.735 61.736 28.03a5 5 0 0 1-.941-2.321h-9.717a5.1 5.1 0 0 1-1.452 2.913 5.1 5.1 0 0 1-2.845 1.442V39.8a5.1 5.1 0 0 1 2.25.935M49.565 25v-.059A3.58 3.58 0 0 0 46 21.436a3.58 3.58 0 0 0-3.565 3.505V25c0 .95.372 1.846 1.045 2.52A3.54 3.54 0 0 0 46 28.564a3.54 3.54 0 0 0 2.52-1.044A3.54 3.54 0 0 0 49.564 25m0 19.873a3.54 3.54 0 0 0-1.045-2.52A3.54 3.54 0 0 0 46 41.31a3.54 3.54 0 0 0-2.533 1.058A3.568 3.568 0 0 0 46 48.44a3.57 3.57 0 0 0 3.565-3.568M48.52 7.646a3.54 3.54 0 0 0 1.044-2.519A3.57 3.57 0 0 0 46 1.563a3.57 3.57 0 0 0-3.565 3.564 3.54 3.54 0 0 0 1.045 2.52A3.54 3.54 0 0 0 46 8.69c.475 0 .938-.09 1.364-.27.426-.176.82-.436 1.156-.775m-3.301 32.159v-9.737a5.1 5.1 0 0 1-2.845-1.442 5.1 5.1 0 0 1-1.452-2.913h-9.717a5.1 5.1 0 0 1-.94 2.32L42.968 40.74a5.04 5.04 0 0 1 2.25-.934m0-19.873v-9.737a5.1 5.1 0 0 1-2.25-.93L30.261 21.968a5.1 5.1 0 0 1 .921 2.178h9.76a5.1 5.1 0 0 1 1.458-2.8 5.12 5.12 0 0 1 2.819-1.415M29.69 25c0-.475-.09-.937-.27-1.364a3.5 3.5 0 0 0-.774-1.155 3.54 3.54 0 0 0-2.52-1.046A3.57 3.57 0 0 0 22.563 25a3.57 3.57 0 0 0 3.564 3.564 3.54 3.54 0 0 0 2.52-1.044A3.54 3.54 0 0 0 29.69 25"/></svg>