<svg xmlns="http://www.w3.org/2000/svg" width="70" height="50" fill="none"><path fill="#101A29" d="M0 10C0 4.477 4.477 0 10 0h20c11.046 0 20 8.954 20 20v8.571C50 40.406 40.406 50 28.571 50 12.791 50 0 37.208 0 21.429z" opacity=".1"/><path fill="#fff" d="M66.882 15.76a23.7 23.7 0 0 0-5.09-7.549 23.7 23.7 0 0 0-7.547-5.09 23.6 23.6 0 0 0-9.243-1.867c-3.206 0-6.314.628-9.242 1.868a23.6 23.6 0 0 0-7.548 5.09 23.7 23.7 0 0 0-5.09 7.547 23.6 23.6 0 0 0-1.867 9.014q-.009.232 0 .46a23.7 23.7 0 0 0 6.957 16.555 23.7 23.7 0 0 0 7.548 5.09 23.6 23.6 0 0 0 9.242 1.868 23.6 23.6 0 0 0 9.243-1.867 23.7 23.7 0 0 0 7.548-5.09 23.7 23.7 0 0 0 5.09-7.548A23.6 23.6 0 0 0 68.75 25v-.006c-.003-3.2-.63-6.308-1.868-9.236M39.956 3.312q-.645.557-1.252 1.259c-1.648 1.901-3.05 4.564-4.073 7.724h-.018a2.32 2.32 0 0 0-2.32 2.32v.014c-3.16 1.024-5.819 2.425-7.72 4.073a12 12 0 0 0-1.256 1.252c1.914-8.231 8.408-14.728 16.639-16.642m-6.24 11.293a.897.897 0 1 1 1.795.001.897.897 0 0 1-1.795-.001m1.011 19.746a.897.897 0 1 1-.001 1.795.897.897 0 0 1 .001-1.795m-9.18-14.53c1.756-1.521 4.248-2.826 7.232-3.788.198.254.46.48.748.628a44 44 0 0 0-.76 7.598H22.79c.23-1.544 1.17-3.065 2.756-4.438m-2.756 5.922h9.973c.04 2.588.29 5.114.745 7.52a2.3 2.3 0 0 0-.733.702c-2.978-.959-5.46-2.258-7.217-3.776-1.59-1.373-2.536-2.897-2.768-4.446m.523 4.307q.562.655 1.274 1.268c1.92 1.66 4.613 3.07 7.81 4.09a2.32 2.32 0 0 0 2.187 2.156c1.02 3.207 2.427 5.903 4.088 7.832q.62.721 1.283 1.293c-8.231-1.914-14.725-8.408-16.642-16.639M44.26 47.21c-1.552-.228-3.083-1.178-4.462-2.78-1.521-1.768-2.823-4.267-3.782-7.26.267-.18.495-.417.665-.69 2.422.461 4.966.715 7.58.755zm0-11.456a43 43 0 0 1-7.23-.717 2.32 2.32 0 0 0-2.068-2.097 43 43 0 0 1-.711-7.195h10.01zm0-11.494H34.248c.04-2.535.287-5.006.739-7.356a2.37 2.37 0 0 0 1.92-1.92 42.6 42.6 0 0 1 7.353-.739zm0-11.496a44 44 0 0 0-7.594.76 2.4 2.4 0 0 0-.63-.745c.96-2.984 2.266-5.476 3.787-7.232 1.373-1.583 2.894-2.523 4.437-2.752zm22.428 7.19a13 13 0 0 0-1.75-1.661c-2.242-1.778-5.36-3.222-9.036-4.19-.968-3.674-2.415-6.794-4.193-9.035a12.5 12.5 0 0 0-1.66-1.75c8.228 1.913 14.721 8.407 16.639 16.635M56.505 23.95a.897.897 0 1 1-.001 1.795.897.897 0 0 1 .001-1.795M45.745 2.794c1.685.247 3.333 1.339 4.798 3.19 1.528 1.93 2.802 4.58 3.708 7.722-2.693-.581-5.544-.897-8.507-.943zm0 11.453q2.287.038 4.468.294a38 38 0 0 1 4.462.785 41 41 0 0 1 1.026 7.341 2.34 2.34 0 0 0-1.444 1.592h-8.513zm0 11.497h8.62c.22.587.773 1.079 1.352 1.283-.118 2.668-.464 5.235-1.04 7.647-2.807.668-5.806 1.03-8.933 1.079zm0 21.465v-9.972c2.962-.043 5.816-.362 8.509-.943-.906 3.142-2.18 5.795-3.707 7.721-1.472 1.855-3.117 2.947-4.803 3.194m4.307-.522a13 13 0 0 0 1.66-1.747c1.781-2.242 3.225-5.365 4.196-9.042 3.674-.968 6.79-2.412 9.03-4.193a13 13 0 0 0 1.753-1.663c-1.914 8.234-8.408 14.728-16.64 16.645m13.964-16.144c-1.927 1.527-4.577 2.795-7.715 3.704a43 43 0 0 0 .906-7.192 2.32 2.32 0 0 0 1.441-1.311h8.565c-.253 1.685-1.345 3.33-3.197 4.799m-5.27-6.283a2.4 2.4 0 0 0-1.558-1.633 43 43 0 0 0-.89-6.877c3.139.909 5.791 2.18 7.718 3.707 1.858 1.472 2.947 3.117 3.197 4.802z"/></svg>