<svg xmlns="http://www.w3.org/2000/svg" width="54" height="40" fill="none"><path fill="#246BFD" d="M40 32a8 8 0 0 1-8 8H16C7.163 40 0 32.837 0 24v-6.857C0 7.675 7.675 0 17.143 0 29.767 0 40 10.234 40 22.857z" opacity=".1"/><path fill="#246BFD" d="M43.642 14.883V6.067l1.05-1.05 1.407 1.409a.593.593 0 0 0 .842 0 3.18 3.18 0 0 0 0-4.496 3.18 3.18 0 0 0-4.496 0 .594.594 0 0 0 0 .841l1.408 1.408-1.047 1.047h-8.823l-3.247-3.25a.59.59 0 0 0-.838 0 12 12 0 0 0-3.521 8.498 11.97 11.97 0 0 0 2.09 6.774l-5.542 5.543a3.05 3.05 0 0 0-2.583 4.164c.304.772.918 1.39 1.685 1.705l5.688 5.688H26.11a4.02 4.02 0 0 0-4.013 4.014v.044c0 .33.265.594.594.594h16.118a.594.594 0 0 0 .593-.594v-.044a4.02 4.02 0 0 0-4.013-4.014h-1.522l-7.734-7.735c.081-.311.113-.65.094-.974l5.302-5.303q1.096.763 2.343 1.27c1.44.583 2.962.88 4.52.88 1.562 0 3.081-.297 4.522-.88a11.9 11.9 0 0 0 3.976-2.64.59.59 0 0 0 0-.84zm.124-12.47c.282-.15.596-.228.925-.228A1.99 1.99 0 0 1 46.456 5.1zm-2.15 4-3.222 3.222-3.221-3.222zm.839.841v6.441l-3.222-3.221zm-21.15 18.583a1.893 1.893 0 1 1 3.785 0 1.893 1.893 0 0 1-3.786 0m14.083 9.701c1.37 0 2.516.98 2.771 2.277H23.34a2.83 2.83 0 0 1 2.77-2.277zm-3.202-1.187h-2.79l-5.538-5.538a3.04 3.04 0 0 0 1.714-1.079zm-6.341-10.004a3.02 3.02 0 0 0-1.472-1.319l4.82-4.82a12 12 0 0 0 1.39 1.403zm12.55-3.043a10.75 10.75 0 0 1-6.543-2.197q-.014-.013-.032-.025-.567-.435-1.084-.95-.553-.556-1.014-1.168l-.02-.025a10.76 10.76 0 0 1-2.138-6.465c0-2.695.978-5.239 2.764-7.225l2.987 2.986.005.005 4.651 4.652.003.002h.002l4.65 4.652.004.005 2.99 2.989a10.75 10.75 0 0 1-7.226 2.764"/></svg>