<svg xmlns="http://www.w3.org/2000/svg" width="65" height="65" fill="none"><path fill="#54A0FF" d="M53.68 27.574H12.85c-.94 0-1.702.762-1.702 1.702v28.365c0 .94.763 1.702 1.703 1.702h3.022a.34.34 0 0 1 .311.205c1.104 2.498 3.153 4.246 4.787 5.316.657.431 1.47-.25 1.174-.978a11.4 11.4 0 0 1-.839-4.45q.001-.048.011-.093H53.68c.94 0 1.702-.762 1.702-1.702V29.277c0-.94-.762-1.703-1.702-1.703"/><path fill="#1DD1A1" d="M53.68 7.516H24.373c0 4.147-3.1 7.247-7.247 7.247a7.5 7.5 0 0 1-5.978-2.966v5.718c0 .94.763 1.702 1.703 1.702h32.362q.01.045.011.092a11.4 11.4 0 0 1-.84 4.455c-.298.73.517 1.406 1.176.974 1.678-1.1 3.794-2.914 4.874-5.52h3.246c.94 0 1.702-.763 1.702-1.703V9.218c0-.94-.762-1.702-1.702-1.702"/><path fill="#338DEF" d="M13.764 57.641V29.277c0-.94.762-1.703 1.703-1.703H12.85c-.94 0-1.703.762-1.703 1.702v28.365c0 .94.763 1.702 1.703 1.702h2.615c-.94 0-1.702-.762-1.702-1.702m8.33 6.118c-1.25-1.044-2.51-2.437-3.294-4.21a.34.34 0 0 0-.31-.206h-2.617a.34.34 0 0 1 .311.205c1.105 2.498 3.154 4.246 4.787 5.316.657.431 1.47-.25 1.174-.978z"/><path fill="#15BA8B" d="M13.764 17.515v-3.546a7.54 7.54 0 0 1-2.616-2.172v5.718c0 .94.763 1.702 1.703 1.702h2.616c-.94 0-1.703-.762-1.703-1.702m5.978-2.752c4.147 0 7.247-3.1 7.247-7.247h-2.616c0 3.69-2.457 6.55-5.92 7.135q.628.11 1.289.112m28.098 4.546a.5.5 0 0 0-.01-.092h-2.617q.01.044.012.092a11.4 11.4 0 0 1-.84 4.455c-.298.73.516 1.406 1.175.974q.778-.51 1.492-1.106c.632-1.603.804-3.11.788-4.323"/><path fill="#11AA7B" d="M28.473 14.33h-1a.981.981 0 0 1 0-1.963h1a.981.981 0 0 1 0 1.962m4.802 0h-1a.981.981 0 0 1 0-1.963h1a.98.98 0 0 1 0 1.962m4.802 0h-1a.98.98 0 0 1 0-1.963h1a.981.981 0 0 1 0 1.962m4.802 0h-1a.981.981 0 0 1 0-1.963h1a.981.981 0 0 1 0 1.962m4.802 0h-1a.981.981 0 0 1 0-1.963h1a.981.981 0 0 1 0 1.962"/><path fill="#338DEF" d="M48.816 35.282h-31.69a.98.98 0 1 1 0-1.962h31.69a.98.98 0 1 1 0 1.962m0 4.77h-31.69a.98.98 0 0 1 0-1.962h31.69a.98.98 0 0 1 0 1.962m0 4.77h-31.69a.98.98 0 1 1 0-1.963h31.69a.98.98 0 1 1 0 1.962m0 4.769h-31.69a.98.98 0 1 1 0-1.962h31.69a.98.98 0 1 1 0 1.962m0 4.77h-31.69a.98.98 0 1 1 0-1.962h31.69a.98.98 0 1 1 0 1.961"/><path fill="#FECA57" d="M17.127 15.023a7.51 7.51 0 1 0 0-15.02 7.51 7.51 0 0 0 0 15.02"/><path fill="#F4B537" d="M12.233 7.513A7.51 7.51 0 0 1 18.434.12a7.509 7.509 0 1 0 0 14.786 7.51 7.51 0 0 1-6.2-7.393"/><path fill="#E4EAF8" d="M17.07 3.145c-2.582 0-3.037 2.466-1.583 2.466.735 0 .432-.889 1.547-.889.213 0 .909.048.909.655 0 1.034-1.801.99-1.801 3.06 0 .659.207.904.765.904.707 0 .813-.379.813-.605 0-.563 0-.874.596-1.34.891-.693 1.343-1.439 1.343-2.216 0-1.198-1.065-2.035-2.59-2.035m-.151 6.73c-.556 0-1.008.458-1.008 1.02s.452 1.02 1.008 1.02c.553 0 1.02-.467 1.02-1.02s-.467-1.02-1.02-1.02"/></svg>