<svg xmlns="http://www.w3.org/2000/svg" width="40" height="40" fill="none"><g fill="#50AF9B" clip-path="url(#a)"><path d="m38.353 16.738-1.982-1.075-1.73-4.174.642-2.163a1.94 1.94 0 0 0-.487-1.919L32.59 5.203a1.93 1.93 0 0 0-1.92-.488l-2.162.646-4.174-1.733-1.075-1.982A1.94 1.94 0 0 0 21.56.633h-3.12a1.94 1.94 0 0 0-1.701 1.013l-1.075 1.982-4.174 1.73-2.163-.646a1.94 1.94 0 0 0-1.919.487L5.203 7.407a1.94 1.94 0 0 0-.487 1.92l.646 2.162-1.733 4.174-1.982 1.075a1.94 1.94 0 0 0-1.013 1.701v3.119a1.94 1.94 0 0 0 1.013 1.701l1.982 1.075 1.73 4.174-.646 2.163a1.94 1.94 0 0 0 .487 1.92l2.205 2.204a1.94 1.94 0 0 0 1.92.487l2.162-.642 4.174 1.73 1.075 1.982a1.94 1.94 0 0 0 1.701 1.012h3.119a1.94 1.94 0 0 0 1.701-1.012l1.075-1.982 4.174-1.73 2.163.642a1.93 1.93 0 0 0 1.919-.487l2.204-2.205a1.94 1.94 0 0 0 .488-1.92l-.642-2.162 1.73-4.174 1.981-1.075a1.94 1.94 0 0 0 1.013-1.701v-3.119a1.94 1.94 0 0 0-1.01-1.701m-.278 4.82a.65.65 0 0 1-.337.567l-2.184 1.184a.65.65 0 0 0-.288.322l-1.904 4.597a.65.65 0 0 0-.023.431l.71 2.38a.65.65 0 0 1-.163.642l-2.209 2.201a.65.65 0 0 1-.64.163l-2.381-.71a.65.65 0 0 0-.431.023l-4.597 1.905a.65.65 0 0 0-.323.288l-1.176 2.186a.65.65 0 0 1-.567.337H18.44a.65.65 0 0 1-.567-.337l-1.184-2.184a.65.65 0 0 0-.322-.288l-4.597-1.904a.65.65 0 0 0-.431-.023l-2.38.71a.64.64 0 0 1-.641-.163l-2.202-2.209a.65.65 0 0 1-.163-.64l.71-2.381a.65.65 0 0 0-.023-.431l-1.907-4.595a.65.65 0 0 0-.288-.323l-2.183-1.178a.65.65 0 0 1-.338-.567V18.44a.65.65 0 0 1 .338-.567l2.183-1.184a.65.65 0 0 0 .288-.322l1.905-4.597a.65.65 0 0 0 .022-.431l-.71-2.38a.65.65 0 0 1 .166-.637l2.206-2.206a.65.65 0 0 1 .64-.163l2.382.71a.65.65 0 0 0 .43-.023l4.597-1.904a.65.65 0 0 0 .323-.289l1.184-2.183a.65.65 0 0 1 .567-.337h3.119a.65.65 0 0 1 .567.337l1.179 2.18a.65.65 0 0 0 .323.29l4.596 1.904a.65.65 0 0 0 .431.022l2.38-.71a.65.65 0 0 1 .642.163l2.201 2.21a.65.65 0 0 1 .163.64l-.71 2.38a.65.65 0 0 0 .023.431l1.904 4.597a.65.65 0 0 0 .289.323l2.183 1.184a.65.65 0 0 1 .337.567z"/><path d="M20 6.45c-7.483 0-13.549 6.065-13.549 13.548S12.517 33.546 20 33.546s13.548-6.066 13.548-13.548C33.54 12.518 27.478 6.458 20 6.449m0 25.806c-6.77 0-12.259-5.489-12.259-12.258S13.23 7.74 20 7.74s12.258 5.488 12.258 12.258C32.25 26.765 26.767 32.248 20 32.256"/><path fill-rule="evenodd" d="M16.397 19.619a3.28 3.28 0 0 0 2.045-.942.645.645 0 0 0-.912-.912 2.08 2.08 0 0 1-2.93-.071.645.645 0 0 0-.955.867c.38.416.86.73 1.394.91-.128.19-.307.34-.516.432a.65.65 0 0 0-.345.849.646.646 0 0 0 .852.338 2.5 2.5 0 0 0 1.367-1.471m9.003.284a1.2 1.2 0 0 1-.516-.432 3.3 3.3 0 0 0 1.393-.91.645.645 0 1 0-.955-.867 2.083 2.083 0 0 1-2.93.071.645.645 0 0 0-.912.912 3.28 3.28 0 0 0 2.044.942 2.5 2.5 0 0 0 1.37 1.47.646.646 0 0 0 .507-1.186zm-7.336 1.386a3 3 0 0 0-.38.02 2.66 2.66 0 0 0-2.287 1.748 2.79 2.79 0 0 0 .675 2.903c.303.3.475.708.479 1.135a.645.645 0 0 0 1.29 0 2.9 2.9 0 0 0-.849-2.038 1.51 1.51 0 0 1-.38-1.566 1.38 1.38 0 0 1 1.21-.899q.121-.013.242-.013a.645.645 0 0 0 0-1.29m4.008.021a4 4 0 0 0-.381-.02.645.645 0 0 0 0 1.29q.12 0 .242.013a1.38 1.38 0 0 1 1.21.9 1.51 1.51 0 0 1-.38 1.564 2.9 2.9 0 0 0-.85 2.038.646.646 0 0 0 1.29 0c.005-.426.177-.834.48-1.135a2.79 2.79 0 0 0 .675-2.903 2.66 2.66 0 0 0-2.286-1.747" clip-rule="evenodd"/><path d="M26.734 13.608a2.45 2.45 0 0 0-1.477-2.855c-2.144-1.56-3.713-2.054-4.797-1.506q-.258.134-.46.342a1.8 1.8 0 0 0-.46-.342c-1.083-.548-2.656-.053-4.802 1.509a2.45 2.45 0 0 0-1.473 2.852 3.07 3.07 0 0 0-2.087 3.381 3.305 3.305 0 0 0-.292 4.065 2.68 2.68 0 0 0-.096 3.157 2.7 2.7 0 0 0 1.232.992 2.9 2.9 0 0 0 2.43 3.448 3.303 3.303 0 0 0 5.548.305 3.302 3.302 0 0 0 5.548-.305 2.9 2.9 0 0 0 2.43-3.448 2.71 2.71 0 0 0 1.7-2.504c0-.595-.199-1.174-.564-1.644a3.31 3.31 0 0 0-.293-4.064 3.07 3.07 0 0 0-2.087-3.382zM17.33 29.032a2.02 2.02 0 0 1-1.87-1.245.645.645 0 0 0-.596-.397 1.613 1.613 0 0 1-1.613-1.613c-.001-.254.06-.505.179-.73a.646.646 0 0 0-.522-.948 1.41 1.41 0 0 1-1.296-1.4 1.4 1.4 0 0 1 .207-.72c.539.356 1.17.545 1.816.544a.645.645 0 1 0 0-1.29 2.023 2.023 0 0 1-1.332-3.549.7.7 0 0 0 .197-.656 2 2 0 0 1-.064-.49 1.818 1.818 0 0 1 3.495-.701.645.645 0 1 0 1.19-.5 3.1 3.1 0 0 0-2.556-1.884 1.2 1.2 0 0 1-.077-.405 1.203 1.203 0 0 1 2.297-.5.646.646 0 0 0 1.173-.537 2.48 2.48 0 0 0-1.043-1.126c1.316-.714 1.871-.574 2.038-.492.382.189.403.807.403.807v2.335a1.9 1.9 0 0 0-.586-.103.645.645 0 1 0 0 1.29.587.587 0 0 1 .586.587v11.7a2.025 2.025 0 0 1-2.026 2.023m9.756-4.933a.644.644 0 0 0-.52.947c.117.226.18.476.178.731a1.614 1.614 0 0 1-1.613 1.613.645.645 0 0 0-.596.397 2.024 2.024 0 0 1-3.891-.777v-9.648c0-.324.262-.587.586-.587a.645.645 0 0 0 0-1.29 1.9 1.9 0 0 0-.586.103v-4.38c0-.005.021-.624.402-.813.164-.081.723-.221 2.038.493a2.48 2.48 0 0 0-1.042 1.125.645.645 0 1 0 1.173.537 1.22 1.22 0 0 1 1.906-.39 1.18 1.18 0 0 1 .314 1.295 3.1 3.1 0 0 0-2.556 1.885.645.645 0 0 0 1.19.5 1.817 1.817 0 0 1 3.496.7q0 .25-.065.49a.73.73 0 0 0 .197.657 2.022 2.022 0 0 1-1.332 3.548.645.645 0 0 0 0 1.29 3.3 3.3 0 0 0 1.816-.543c.133.216.203.464.205.717a1.41 1.41 0 0 1-1.3 1.4"/></g><defs><clipPath id="a"><path fill="#fff" d="M0 0h40v40H0z"/></clipPath></defs></svg>