<svg xmlns="http://www.w3.org/2000/svg" width="40" height="40" fill="none"><g fill="#50AF9B" clip-path="url(#a)"><path fill-rule="evenodd" d="M28 35.335H12a.667.667 0 1 0 0 1.334h16a.667.667 0 0 0 0-1.334M14.6 21.183q.137 0 .263-.054a2.57 2.57 0 0 0 1.414-1.52 3.4 3.4 0 0 0 2.113-.972.667.667 0 0 0-.943-.943 2.15 2.15 0 0 1-3.026-.073.667.667 0 0 0-.988.896c.393.43.888.753 1.44.94a1.24 1.24 0 0 1-.533.446.667.667 0 0 0 .262 1.28zm3.4.152a4 4 0 0 0-.392.022 2.75 2.75 0 0 0-2.363 1.805 2.88 2.88 0 0 0 .697 3c.313.31.491.732.495 1.173a.667.667 0 0 0 1.334 0 3 3 0 0 0-.878-2.106 1.56 1.56 0 0 1-.393-1.618 1.43 1.43 0 0 1 1.251-.929q.125-.013.25-.013a.667.667 0 0 0 0-1.334m4.142.022a4 4 0 0 0-.393-.021.667.667 0 1 0 0 1.333q.124 0 .25.014a1.42 1.42 0 0 1 1.25.929 1.56 1.56 0 0 1-.393 1.617 3 3 0 0 0-.877 2.106.667.667 0 1 0 1.333 0c.004-.44.182-.862.495-1.173a2.88 2.88 0 0 0 .698-3 2.75 2.75 0 0 0-2.363-1.805m3.52-1.454a1.24 1.24 0 0 1-.534-.446 3.44 3.44 0 0 0 1.44-.94.667.667 0 0 0-.987-.896 2.15 2.15 0 0 1-3.027.073.667.667 0 0 0-.943.943 3.4 3.4 0 0 0 2.113.972 2.57 2.57 0 0 0 1.415 1.52.667.667 0 1 0 .524-1.226z" clip-rule="evenodd"/><path d="M38 18.667A2 2 0 1 0 36.124 16H29.11a3.2 3.2 0 0 0-.487-1.333h6.712a1.333 1.333 0 0 0 1.333-1.334v-.789a2 2 0 1 0-1.333 0v.79h-2.667V4a4.004 4.004 0 0 0-4-4H11.334a4.004 4.004 0 0 0-4 4v9.333H4.667v-.789a2 2 0 1 0-1.333 0v.79a1.333 1.333 0 0 0 1.333 1.333h6.712c-.26.402-.427.857-.487 1.333H3.878a2 2 0 1 0 0 1.333h6.671a3.4 3.4 0 0 0 .034 3.758c-.207.272-.362.58-.455.909h-6.25a2 2 0 1 0 0 1.333h6.183c.1.498.332.959.673 1.334H4.667A1.333 1.333 0 0 0 3.334 26v.79a2 2 0 1 0 1.333 0V26h2.667v10a4.004 4.004 0 0 0 4 4h17.333a4.004 4.004 0 0 0 4-4V26h2.667v.79a2 2 0 1 0 1.333 0V26a1.333 1.333 0 0 0-1.333-1.333h-6.067c.342-.375.575-.836.674-1.334h6.183a2 2 0 1 0 0-1.333h-6.25a2.7 2.7 0 0 0-.455-.91 3.4 3.4 0 0 0 .033-3.757h6.671a2 2 0 0 0 1.878 1.334M36 10a.666.666 0 1 1 0 1.333A.666.666 0 0 1 36 10M4 10a.666.666 0 1 1 0 1.333A.666.666 0 0 1 4 10m0 19.333A.667.667 0 1 1 4 28a.667.667 0 0 1 0 1.333m32 0A.667.667 0 1 1 36 28a.667.667 0 0 1 0 1.333M38 16a.666.666 0 1 1 0 1.333A.666.666 0 0 1 38 16m-9.333 6.79a1.456 1.456 0 0 1-1.343 1.447.665.665 0 0 0-.538.978 1.667 1.667 0 0 1-1.482 2.422.67.67 0 0 0-.615.41 2.092 2.092 0 0 1-4.022-.804v-9.969c0-.335.271-.606.606-.607a.667.667 0 1 0 0-1.333 1.9 1.9 0 0 0-.606.107v-4.525c0-.007.022-.645.416-.84.17-.085.747-.23 2.106.508-.473.264-.85.672-1.077 1.163a.668.668 0 1 0 1.212.555 1.24 1.24 0 0 1 2.294.933 3.2 3.2 0 0 0-2.64 1.948.667.667 0 0 0 1.228.516 1.879 1.879 0 0 1 3.613.724q0 .259-.067.507a.75.75 0 0 0 .204.678 2.09 2.09 0 0 1-1.377 3.667.667.667 0 0 0 0 1.333 3.4 3.4 0 0 0 1.877-.562c.137.224.21.48.211.743m-15.452 2.425a.666.666 0 0 0-.538-.978 1.456 1.456 0 0 1-1.343-1.448c.002-.262.076-.52.214-.743.557.367 1.21.562 1.877.561a.667.667 0 1 0 0-1.333 2.091 2.091 0 0 1-1.377-3.667.73.73 0 0 0 .204-.678 2 2 0 0 1-.067-.506 1.879 1.879 0 0 1 3.612-.725.668.668 0 1 0 1.23-.516 3.2 3.2 0 0 0-2.641-1.947 1.2 1.2 0 0 1-.08-.418 1.244 1.244 0 0 1 2.374-.518.667.667 0 0 0 1.212-.554 2.56 2.56 0 0 0-1.078-1.164c1.36-.737 1.934-.592 2.107-.508.393.195.416.834.416.834v2.413a1.9 1.9 0 0 0-.607-.107.667.667 0 0 0 0 1.334.606.606 0 0 1 .607.606v12.09a2.091 2.091 0 0 1-4.022.804.67.67 0 0 0-.615-.41 1.666 1.666 0 0 1-1.485-2.422M27.281 1.333l-1.2 1.5a1.33 1.33 0 0 1-1.042.5H14.962a1.33 1.33 0 0 1-1.041-.5l-1.2-1.5zM8.667 4a2.66 2.66 0 0 1 2.37-2.637l1.842 2.304a2.66 2.66 0 0 0 2.083 1h10.077a2.65 2.65 0 0 0 2.083-1l1.841-2.303A2.66 2.66 0 0 1 31.333 4v9.333h-4.36a2.6 2.6 0 0 0 .058-.514 2.57 2.57 0 0 0-1.6-2.374c-2.216-1.611-3.838-2.123-4.957-1.556a1.9 1.9 0 0 0-.476.354 1.9 1.9 0 0 0-.475-.354c-1.12-.568-2.743-.055-4.962 1.559a2.53 2.53 0 0 0-1.533 2.885h-4.36zM2 17.333A.667.667 0 1 1 2 16a.667.667 0 0 1 0 1.333m0 6A.667.667 0 1 1 2 22a.667.667 0 0 1 0 1.333M31.334 36a2.667 2.667 0 0 1-2.667 2.667H11.334A2.667 2.667 0 0 1 8.667 36V26H11.7a3.005 3.005 0 0 0 2.567 2.94 3.413 3.413 0 0 0 5.733.315 3.412 3.412 0 0 0 5.734-.315A3.004 3.004 0 0 0 28.3 26h3.033zM38 22a.666.666 0 1 1 0 1.333A.666.666 0 0 1 38 22"/></g><defs><clipPath id="a"><path fill="#fff" d="M0 0h40v40H0z"/></clipPath></defs></svg>