<svg xmlns="http://www.w3.org/2000/svg" width="40" height="40" fill="none"><g fill="#50AF9B" clip-path="url(#a)"><path fill-rule="evenodd" d="M27.955 18.546a3.84 3.84 0 0 1-2.733-1.134.667.667 0 0 0-.943.943 5.16 5.16 0 0 0 3.493 1.513 3.82 3.82 0 0 0 3.248 2.774.667.667 0 0 0 .145-1.325 2.48 2.48 0 0 1-2.031-1.579 5.2 5.2 0 0 0 4.016-5.056.666.666 0 1 0-1.334 0 3.867 3.867 0 0 1-3.861 3.864m2.403 10.516c0-.031.006-.061.006-.092a4.853 4.853 0 0 0-4.848-4.848.667.667 0 0 0 0 1.333 3.52 3.52 0 0 1 3.514 3.515 3.4 3.4 0 0 1-.043.518 4.85 4.85 0 0 0-2.744 4.361.667.667 0 0 0 1.333 0 3.52 3.52 0 0 1 3.515-3.515.667.667 0 1 0 0-1.334q-.368.003-.733.062" clip-rule="evenodd"/><path d="M36.667 9.334a2 2 0 0 0 2-2V7.21a2 2 0 1 0-1.334 0v.123a.667.667 0 0 1-.666.666h-4.382a3.8 3.8 0 0 0-.733-1.333h1.781a2 2 0 0 0 2-2v-.79a2 2 0 1 0-1.333 0v.79a.666.666 0 0 1-.667.667h-3.629C26.363 2.96 23.939 2.2 22.308 3.03q-.16.082-.308.185V2a2 2 0 1 0-4 0v.667H2.667A2.667 2.667 0 0 0 0 5.334v29.333a2.667 2.667 0 0 0 2.667 2.667H18V38a2 2 0 0 0 4 0v-1.733a5.186 5.186 0 0 0 8.48-1.075 4.45 4.45 0 0 0 1.703-.525h1.15a.667.667 0 0 1 .667.667v.79a2 2 0 1 0 1.333 0v-.79a2 2 0 0 0-1.66-1.966c.304-.413.536-.876.684-1.367h2.31a.667.667 0 0 1 .666.666v.123a2 2 0 1 0 1.334 0v-.123a2 2 0 0 0-2-2h-2.124a4.5 4.5 0 0 0-.176-1.206 4.17 4.17 0 0 0 2.966-3.976 4.1 4.1 0 0 0-1.066-2.771 5.175 5.175 0 0 0-.42-6.784 4.776 4.776 0 0 0-3.596-5.6c.106-.322.169-.658.187-.996zM38 4.667A.667.667 0 1 1 38 6a.667.667 0 0 1 0-1.333m-3.333-3.333a.667.667 0 1 1 0 1.333.667.667 0 0 1 0-1.333m0 37.333a.667.667 0 1 1 0-1.333.667.667 0 0 1 0 1.333M38 35.334A.666.666 0 1 1 38 34a.666.666 0 0 1 0 1.333M2.667 36a1.334 1.334 0 0 1-1.334-1.333V5.334A1.333 1.333 0 0 1 2.667 4H18v32zm18 2a.667.667 0 0 1-1.334 0V2a.667.667 0 0 1 1.334 0zm13.939-22.97q0 .482-.13.946a.75.75 0 0 0 .205.678 3.86 3.86 0 0 1-2.548 6.77.667.667 0 0 0 0 1.334 5.17 5.17 0 0 0 3.188-1.09 2.787 2.787 0 0 1-.073 3.728c-.482.52-1.141.84-1.848.896a.667.667 0 0 0-.54.978c.234.445.356.94.354 1.442a3.17 3.17 0 0 1-3.167 3.167.67.67 0 0 0-.614.41 3.868 3.868 0 1 1-3.566-5.35.667.667 0 1 0 0-1.332A5.18 5.18 0 0 0 22 29.34V16.424a1.426 1.426 0 0 1 1.424-1.423.667.667 0 0 0 0-1.334 2.74 2.74 0 0 0-1.424.408V5.973c0-.013.023-1.309.917-1.755.558-.28 1.854-.406 4.592 1.262a3.81 3.81 0 0 0-2.66 3.626.667.667 0 1 0 1.333 0 2.466 2.466 0 1 1 4.685 1.088 4.85 4.85 0 0 0-4.626 4.836.667.667 0 1 0 1.333 0 3.515 3.515 0 0 1 7.03 0z"/><path fill-rule="evenodd" d="M3.734 5.465a.667.667 0 0 0-.8 1.067l1.955 1.467-1.955 1.466a.667.667 0 1 0 .8 1.067l2.666-2a.667.667 0 0 0 0-1.067zm4.933 5.2h2.667a.667.667 0 0 0 0-1.333H8.667a.667.667 0 0 0 0 1.333m-3.333 2.667h-2a.667.667 0 0 0 0 1.333h2a.667.667 0 0 0 0-1.333m0 2.667h-2a.666.666 0 1 0 0 1.333h2a.667.667 0 1 0 0-1.333m0 2.666h-2a.667.667 0 1 0 0 1.334h2a.666.666 0 1 0 0-1.334m0 2.667h-2a.667.667 0 0 0 0 1.333h2a.667.667 0 0 0 0-1.333m0 2.667h-2a.666.666 0 1 0 0 1.333h2a.667.667 0 1 0 0-1.333m0 2.666h-2a.667.667 0 1 0 0 1.334h2a.666.666 0 1 0 0-1.334m0 2.667h-2a.667.667 0 0 0 0 1.333h2a.667.667 0 0 0 0-1.333m0 2.667h-2a.666.666 0 1 0 0 1.333h2a.667.667 0 1 0 0-1.333M16 13.332H8a.667.667 0 0 0 0 1.333h8a.667.667 0 0 0 0-1.333m-1.333 4a.667.667 0 1 0 0-1.333H9.334a.666.666 0 1 0 0 1.333zM16 18.665H8A.667.667 0 1 0 8 20h8a.666.666 0 1 0 0-1.334m-1.333 4a.667.667 0 0 0 0-1.333H9.334a.667.667 0 0 0 0 1.333zM16 24H8a.666.666 0 1 0 0 1.333h8A.667.667 0 1 0 16 24m-1.333 4a.666.666 0 1 0 0-1.334H9.334a.667.667 0 1 0 0 1.334zM16 29.332H8a.667.667 0 0 0 0 1.333h8a.667.667 0 0 0 0-1.333m-1.333 2.667H9.334a.666.666 0 1 0 0 1.333h5.333a.667.667 0 1 0 0-1.333" clip-rule="evenodd"/></g><defs><clipPath id="a"><path fill="#fff" d="M0 0h40v40H0z"/></clipPath></defs></svg>