<svg xmlns="http://www.w3.org/2000/svg" width="40" height="40" fill="none"><g fill="#50AF9B" clip-path="url(#a)"><path fill-rule="evenodd" d="M16.655 4.632a.667.667 0 1 0-.48-1.243 10.74 10.74 0 0 0-6.834 9.953.666.666 0 1 0 1.333 0 9.4 9.4 0 0 1 5.981-8.71" clip-rule="evenodd"/><path d="M17.287 9.086a.667.667 0 0 0-1.23 0l-3.333 7.998a.667.667 0 1 0 1.23.513l.94-2.256h3.556l.94 2.256a.666.666 0 0 0 1.23-.513zm-1.837 4.922 1.222-2.933 1.222 2.933z"/><path fill-rule="evenodd" d="M26.003 10.009a.666.666 0 1 0 0-1.333h-3.999a.666.666 0 1 0 0 1.333h1.333v6.665h-1.333a.666.666 0 1 0 0 1.333h4a.666.666 0 1 0 0-1.333H24.67v-6.665z" clip-rule="evenodd"/><path d="M37.334 10.674a2.666 2.666 0 0 0-2.571 2h-1.446a13.1 13.1 0 0 0-.823-3.999h2.174a2 2 0 0 0 2-2V5.247a2.666 2.666 0 1 0-1.333 0v1.428a.667.667 0 0 1-.667.666h-2.763a13.32 13.32 0 0 0-23.799 0H5.342a.666.666 0 0 1-.667-.666V5.247a2.666 2.666 0 1 0-1.332 0v1.428a2 2 0 0 0 2 2h2.18a13.3 13.3 0 0 0-.83 3.998H5.247a2.666 2.666 0 1 0 0 1.334h1.446a13.3 13.3 0 0 0 .83 3.999H5.341a2 2 0 0 0-2 1.999v1.428a2.666 2.666 0 1 0 1.333 0v-1.428c0-.368.299-.666.667-.666h2.763a13.3 13.3 0 0 0 3.157 4.065 8.25 8.25 0 0 1 2.744 6.265v1h-1.333a2 2 0 1 0 0 3.999h1.333a2.666 2.666 0 0 0 2.067 2.592c.337 1.556 1.97 2.74 3.932 2.74s3.595-1.184 3.932-2.74a2.666 2.666 0 0 0 2.066-2.592h1.334a2 2 0 1 0 0-3.999h-1.334v-1.066a8.1 8.1 0 0 1 2.715-6.174 13.3 13.3 0 0 0 3.18-4.09h2.77c.368 0 .667.298.667.666v1.428a2.666 2.666 0 1 0 1.332 0v-1.428a2 2 0 0 0-1.999-2H32.48a13.4 13.4 0 0 0 .828-3.998h1.454a2.661 2.661 0 1 0 2.571-3.333m-2.666-7.998a1.333 1.333 0 1 1 2.666 0 1.333 1.333 0 0 1-2.666 0m-31.992 0a1.333 1.333 0 1 1 2.666 0 1.333 1.333 0 0 1-2.666 0m2.666 21.328a1.333 1.333 0 1 1-2.666 0 1.333 1.333 0 0 1 2.666 0m31.992 0a1.333 1.333 0 1 1-2.666 0 1.333 1.333 0 0 1 2.666 0M2.676 14.673a1.333 1.333 0 1 1 0-2.666 1.333 1.333 0 0 1 0 2.666m21.995 15.33v1.999H15.34v-2zm-11.997 3.332a.667.667 0 0 1 0-1.333h1.333v1.333zm7.331 5.332a2.72 2.72 0 0 1-2.502-1.333h5.004a2.72 2.72 0 0 1-2.502 1.333m4.666-3.999c0 .736-.597 1.333-1.334 1.333h-6.664a1.333 1.333 0 0 1-1.333-1.333v-1.333h9.33zm2.666-2.666a.667.667 0 1 1 0 1.333h-1.334v-1.333zm.51-9.585a9.34 9.34 0 0 0-3.129 6.252h-9.43a9.47 9.47 0 0 0-3.152-6.274A11.997 11.997 0 0 1 12.003 4.4a11.86 11.86 0 0 1 7.985-3.057q.694 0 1.381.076a12.01 12.01 0 0 1 9.505 6.84l.006.017a11.8 11.8 0 0 1 1.055 3.756 12.04 12.04 0 0 1-4.087 10.385m9.487-7.744a1.333 1.333 0 1 1 0-2.666 1.333 1.333 0 0 1 0 2.666"/></g><defs><clipPath id="a"><path fill="#fff" d="M0 0h40v40H0z"/></clipPath></defs></svg>