<svg xmlns="http://www.w3.org/2000/svg" width="40" height="40" fill="none"><g fill="#50AF9B" clip-path="url(#a)"><path d="M3.334 33.67a.667.667 0 1 0 0-1.334.667.667 0 0 0 0 1.333M6 33.67a.667.667 0 1 0 0-1.334.667.667 0 0 0 0 1.333"/><path fill-rule="evenodd" d="M10 32.336H8.667a.667.667 0 0 0 0 1.333H10a.667.667 0 0 0 0-1.333" clip-rule="evenodd"/><path d="M38.667 29.79V6.336A2.667 2.667 0 0 0 36 3.668H4a2.667 2.667 0 0 0-2.667 2.667V29.79A2 2 0 0 0 0 31.668v.667a4.004 4.004 0 0 0 4 4h32a4.004 4.004 0 0 0 4-4v-.667a2 2 0 0 0-1.333-1.877m-36-23.455C2.667 5.598 3.264 5 4 5h32c.736 0 1.333.597 1.333 1.334v23.333H20.667V29A2.667 2.667 0 0 0 18 26.335h-.667V25h4A2.667 2.667 0 0 0 24 22.335V15a2.667 2.667 0 0 0-2.667-2.666h-6.666v-2.123a2 2 0 1 0-1.334 0v2.123H6.667A2.667 2.667 0 0 0 4 15v7.334A2.667 2.667 0 0 0 6.667 25h4v1.334H10A2.667 2.667 0 0 0 7.333 29v.667H2.667zm6 23.333v-.667c0-.736.597-1.333 1.333-1.333h8c.736 0 1.333.597 1.333 1.333v.667zM14 9.001a.667.667 0 1 1 0-1.333A.667.667 0 0 1 14 9m7.333 4.667c.737 0 1.334.597 1.334 1.333v7.334c0 .736-.597 1.333-1.334 1.333H6.667a1.333 1.333 0 0 1-1.334-1.333V15c0-.736.597-1.333 1.334-1.333zM12 25.001h4v1.334h-4zm15.057 6-.942.943c-.25.25-.59.39-.943.39H14.828a1.34 1.34 0 0 1-.943-.39L12.943 31zm11.61 1.334A2.667 2.667 0 0 1 36 35H4a2.667 2.667 0 0 1-2.667-2.666v-.667c0-.368.299-.667.667-.667h9.057l1.886 1.886c.5.498 1.178.78 1.885.78h10.344a2.68 2.68 0 0 0 1.885-.78L28.943 31H38c.368 0 .667.299.667.667z"/><path fill-rule="evenodd" d="M10.8 20.735a4 4 0 0 0 6.4 0 .667.667 0 0 0-1.066-.8 2.666 2.666 0 0 1-4.267 0 .667.667 0 1 0-1.067.8" clip-rule="evenodd"/><path d="M9 19.67a2.333 2.333 0 1 0 0-4.667 2.333 2.333 0 0 0 0 4.666m0-3.334a1 1 0 1 1 0 2 1 1 0 0 1 0-2m10 3.333a2.333 2.333 0 1 0 0-4.666 2.333 2.333 0 0 0 0 4.666m0-3.333a1 1 0 1 1 0 2 1 1 0 0 1 0-2m7.418 1.11c.285.146.6.223.92.223a2 2 0 0 0 1.147-.366l2.389-1.634H34a2 2 0 0 0 2-2V8.336a2 2 0 0 0-2-2h-6.666a2 2 0 0 0-2 2v7.333a1.99 1.99 0 0 0 1.084 1.776m.249-9.11c0-.368.298-.667.667-.667H34c.369 0 .667.299.667.667v5.333a.667.667 0 0 1-.667.667h-3.333a.67.67 0 0 0-.376.116l-2.57 1.758a.666.666 0 0 1-1.054-.54z"/><path fill-rule="evenodd" d="M28.667 10.333h4a.667.667 0 0 0 0-1.333h-4a.667.667 0 1 0 0 1.333m0 2.667h4a.667.667 0 0 0 0-1.333h-4a.667.667 0 0 0 0 1.333" clip-rule="evenodd"/><path d="M27.333 28.333H34a2 2 0 0 0 2-2V19a2 2 0 0 0-3.152-1.635L30.46 19h-3.127a2 2 0 0 0-2 2v5.333a2 2 0 0 0 2 2M26.666 21c0-.368.299-.667.667-.667h3.333c.134 0 .265-.04.376-.116l2.57-1.758a.667.667 0 0 1 1.054.541v7.333A.667.667 0 0 1 34 27h-6.667a.667.667 0 0 1-.667-.667z"/><path fill-rule="evenodd" d="M28.667 25.668h4a.667.667 0 1 0 0-1.333h-4a.667.667 0 1 0 0 1.333m0-2.667h4a.667.667 0 1 0 0-1.333h-4a.667.667 0 1 0 0 1.333" clip-rule="evenodd"/></g><defs><clipPath id="a"><path fill="#fff" d="M0 0h40v40H0z"/></clipPath></defs></svg>