<svg xmlns="http://www.w3.org/2000/svg" width="97" height="30" fill="none"><path fill="#fff" d="M96.432 8.849a6.43 6.43 0 0 0-6.073-4.268h-.058a6.44 6.44 0 0 0-4.64 1.96 6.44 6.44 0 0 0-4.638-1.96h-.059a6.43 6.43 0 0 0-4.195 1.545v-.49a.945.945 0 0 0-.943-.87H71.52a.947.947 0 0 0-.952.944v23.165c0 .524.426.945.952.945h4.305c.48 0 .874-.355.937-.814l-.002-16.63q0-.086.008-.167c.07-.742.618-1.352 1.485-1.429h.793c.363.032.669.159.91.35.374.294.582.748.582 1.246l.017 16.548a.95.95 0 0 0 .951.947h4.305a.95.95 0 0 0 .946-.9l-.002-16.617a1.56 1.56 0 0 1 .7-1.332c.22-.141.486-.235.792-.264h.793c.932.08 1.495.781 1.493 1.596l.016 16.526c0 .524.427.945.951.945h4.305a.95.95 0 0 0 .952-.945V11.106c0-1.212-.138-1.728-.326-2.257M67.29 4.826h-2.462V.86a.864.864 0 0 0-1.033-.843c-2.73.742-2.183 4.489-7.166 4.808h-.484a1 1 0 0 0-.208.024h-.004l.004.002a.944.944 0 0 0-.746.917v4.266c0 .52.428.943.954.943h2.598l-.004 18.089c0 .516.42.933.941.933h4.256c.519 0 .94-.417.94-.933l.002-18.09h2.411a.95.95 0 0 0 .952-.942V5.769a.95.95 0 0 0-.951-.943m-15.488-.001h-4.305a.947.947 0 0 0-.95.943v8.82c-.01.547-.455.984-1.008.984h-1.802c-.558 0-1.01-.445-1.01-1l-.016-8.804a.95.95 0 0 0-.952-.943h-4.305a.947.947 0 0 0-.951.943v9.668c0 3.672 2.642 6.29 6.35 6.29 0 0 2.782 0 2.866.016a.997.997 0 0 1 .893.988.996.996 0 0 1-.879.985l-.073.014-6.295.022a.947.947 0 0 0-.951.943v4.264c0 .522.425.943.951.943h7.038c3.71 0 6.35-2.616 6.35-6.29V5.767a.946.946 0 0 0-.95-.943m-41.288 0h-9.41a.93.93 0 0 0-.933.924v4.18l.002.024-.002.058v18.917c0 .514.389.933.87.945h4.386a.95.95 0 0 0 .952-.943l.016-6.483h4.119c3.446 0 5.847-2.37 5.847-5.798V10.63c0-3.43-2.401-5.807-5.848-5.807m-.378 10.45c0 .55-.452 1-1.009 1l-2.731.002V11h2.731c.557 0 1.009.445 1.009 1zM27.312 4.847H21.34c-.528 0-.956.398-.956.885v1.66l.002.032-.002.036v2.273c0 .516.454.937 1.013.937h5.687c.45.07.806.395.857.903v.55c-.05.483-.403.836-.832.876H24.29c-3.746 0-6.414 2.466-6.414 5.93v4.96c0 3.443 2.294 5.893 6.013 5.893h7.806c1.401 0 2.537-1.052 2.537-2.346V11.25c0-3.924-2.041-6.403-6.92-6.403m.685 18.475a1 1 0 0 1-.017.156 1 1 0 0 1-.04.139c-.134.373-.51.644-.958.644H25.19c-.558 0-1.014-.422-1.014-.94v-.804l-.002-.03.002-2.141v-.67l.002-.006c.002-.516.453-.933 1.012-.933h1.792c.56 0 1.014.419 1.014.939z"/></svg>