<svg xmlns="http://www.w3.org/2000/svg" width="87" height="30" fill="none"><path fill="#fff" d="M62.698 7.207c1.956 0 3.54-1.613 3.54-3.602S64.652 0 62.697 0s-3.536 1.615-3.536 3.605a3.65 3.65 0 0 0 1.035 2.548 3.5 3.5 0 0 0 2.501 1.054M35.59 9.149c-.16.42-1.31 3.717-4.09 7.144V1.638L24.093 3.13v26.567H31.5v-8.212c2.146 3.276 3.206 8.211 3.206 8.211h8.874c-.876-3.717-4.717-10.568-4.717-10.568a33.3 33.3 0 0 0 5.2-9.977zm19.475-.277c-6.634.217-10.004 3.249-10.004 9.276v11.546h7.24V20.28c0-3.608.464-5.146 4.668-5.303V8.98c-.707-.153-1.904-.105-1.904-.105M11.67 12.08c-.908-.06-3.009-.2-3.009-2.126 0-2.323 3.024-2.323 4.16-2.323 1.994 0 4.577.598 6.422 1.162a38 38 0 0 0 1.905.748l.083.023V3.195l-.112-.033c-2.177-.777-4.708-1.523-9.402-1.523C3.624 1.64.757 6.44.757 10.554c0 2.371.999 7.952 10.266 8.596.786.05 2.87.171 2.87 2.163 0 1.643-1.707 2.612-4.577 2.612-3.145 0-6.2-.817-8.052-1.591v6.555c2.775.74 5.903 1.111 9.57 1.111 7.913 0 11.457-4.542 11.457-9.045 0-5.105-3.966-8.422-10.62-8.876m47.441 17.62h7.18V9.174H59.11zm20.7-26.75v26.75h7.182V1.64zm-10.478 0 7.174-1.308V29.7h-7.174V2.946z"/></svg>